<svg xmlns="http://www.w3.org/2000/svg" style="display: none;">

    <symbol id="icon-star" viewBox="0 0 24 24">
      <path d="M12 17.27L18.18 21l-1.64-7.03L22 9.24l-7.19-.61L12 2 9.19 8.63 2 9.24l5.46 4.73L5.82 21z"/>
    </symbol>

	<symbol id="icon-wikipedia" viewBox="0 0 455 455">
<path d="M0,0v455h455V0H0z M385,118.141c0,1.918-1.558,3.47-3.477,3.47h-9.736 c-3.546,0-6.744,2.15-8.081,5.439l-88.815,217.909L230.16,244.55L182.3,344.958L90.709,126.964 c-1.364-3.239-4.535-5.345-8.049-5.345h-9.181c-1.918,0-3.479-1.56-3.479-3.479v-8.099h79.147l-0.223,8.193 c-0.05,1.886-1.593,3.385-3.477,3.385h-13.249c-4.926,0-8.302,4.971-6.495,9.548l64.305,162.675l32.522-70.485l-41.099-96.434 c-1.373-3.215-4.526-5.312-8.031-5.312h-6.392c-1.918,0-3.479-1.552-3.479-3.47v-8.099h59.436v8.099c0,1.918-1.56,3.47-3.477,3.47 c-5.013,0-8.398,5.133-6.421,9.745l24.288,56.572l24.799-56.52c2.021-4.614-1.355-9.788-6.401-9.788h-9.284 c-1.927,0-3.479-1.56-3.479-3.479v-8.099h62.242v8.099c0,1.918-1.552,3.479-3.479,3.479h-10.358c-3.385,0-6.471,1.962-7.903,5.03 l-38.312,81.925l35.772,84.058l62.589-161.542c1.739-4.57-1.637-9.472-6.53-9.472H321.54c-1.918,0-3.479-1.56-3.479-3.479v-8.099 H385V118.141z"/>
	</symbol>

	<symbol id="icon-netflix" viewBox="0 0 300 250">
<defs>
<linearGradient id="linear0" gradientUnits="userSpaceOnUse" x1="108.141998" y1="240.643005" x2="176.518005" y2="189.037994" gradientTransform="matrix(0.625,0,0,0.520833,-10,-8.333333)">
<stop offset="0" style="stop-color:rgb(76.078431%,0%,0%);stop-opacity:0;"/>
<stop offset="1" style="stop-color:rgb(61.568627%,0%,0%);stop-opacity:1;"/>
</linearGradient>
<linearGradient id="linear1" gradientUnits="userSpaceOnUse" x1="400.786011" y1="312.035004" x2="338.860992" y2="337.837006" gradientTransform="matrix(0.625,0,0,0.520833,-10,-8.333333)">
<stop offset="0" style="stop-color:rgb(76.078431%,0%,0%);stop-opacity:0;"/>
<stop offset="1" style="stop-color:rgb(61.568627%,0%,0%);stop-opacity:1;"/>
</linearGradient>
</defs>
<g id="surface1">
<path style=" stroke:none;fill-rule:nonzero;fill:rgb(76.078433%,0%,0%);fill-opacity:1;" d="M 125.25 0 L 67.828125 0 L 67.828125 250 C 86.660156 246.285156 106.332031 244.421875 125.25 243.722656 Z M 125.25 0 "/>
<path style=" stroke:none;fill-rule:nonzero;fill:url(#linear0);" d="M 125.25 0 L 67.828125 0 L 67.828125 191.285156 C 86.660156 187.570312 106.332031 185.707031 125.25 185.007812 Z M 125.25 0 "/>
<path style=" stroke:none;fill-rule:nonzero;fill:rgb(76.078433%,0%,0%);fill-opacity:1;" d="M 232.171875 250 L 232.171875 0 L 174.75 0 L 174.75 244.222656 C 208.273438 246 232.171875 250 232.171875 250 Z M 232.171875 250 "/>
<path style=" stroke:none;fill-rule:nonzero;fill:url(#linear1);" d="M 232.171875 250 L 232.171875 84.085938 L 174.75 84.085938 L 174.75 244.222656 C 208.273438 246 232.171875 250 232.171875 250 Z M 232.171875 250 "/>
<path style=" stroke:none;fill-rule:nonzero;fill:rgb(98.039216%,0%,0%);fill-opacity:1;" d="M 232.171875 250 L 125.25 0 L 67.828125 0 L 172.222656 244.089844 C 207.066406 245.796875 232.171875 250 232.171875 250 Z M 232.171875 250 "/>
</g>
	</symbol>

	<symbol id="icon-hbo" viewBox="0 -10 512 240">
<path d="M148 206L92.77 206L92.77 127.24L56.93 127.24L56.93 206L0 206L0 3L56.93 3L56.93 78.51L92.77 78.51L92.77 3L148 3L148 206Z" />
<path d="M407.04 146.26c22.75 0 41.19-18.48 41.19-41.29c0-22.8-18.44-41.28-41.19-41.28c-22.75 0-41.19 18.49-41.19 41.28c0 22.81 18.44 41.29 41.19 41.29zm-52.39-41.29c0-29 23.46-52.52 52.39-52.52c28.94 0 52.4 23.51 52.4 52.52c0 29.01-23.46 52.52-52.4 52.52c-28.93 0-52.39-23.51-52.39-52.52zm-72.95 0c6.48-.82 17.29-8.25 21.1-13c-1.34 5.88-1.44 22.9 0.12 28.78c-4.34-6.7-14.63-14.96-21.22-15.79zM244.02 49.37c8.23 0 14.72 8.15 14.72 17.43c0 9.29-6.49 17.44-14.72 17.44h-28.3V49.37zm-0.1 77.47c8.23 0 14.72 8.15 14.72 17.43c0 9.29-6.49 17.44-14.72 17.44h-28.3v-34.87zm163.08 83.95C464.67 210.77 511.59 162.74 511.58 104.93C511.57 45.9 464.67 0.04 407 0c-57.6 0-87.03 42.5-94.3 59.61c0.07-25.75-25.25-56.15-54.87-56.18h-95.43V209.76l88.97 0.02c35.87 0 61.39-31.16 61.44-57.87c8.18 16.81 36.59 58.9 94.19 58.88z" />
	</symbol>

	<symbol id="icon-filmaffinity" viewBox="0 0 192 192">
<rect width="192" height="192" fill="#4682B4"/>
<g transform="translate(0,192) scale(.1,-.1)" fill="#FFFFFF" stroke="none">
<path d="m952 1393 c-11 -21 -31 -73 -47 -115 l-28 -78 -208 0 c-248 0 -239 4 -239 -106 l0 -74 165 0 165 0 0 -115 0 -115 -165 0 -165 0 0 -150 0 -150 -145 0 -146 0 3 373 3 374 30 48 c38 61 90 103 157 126 47 16 89 18 346 19 l292 0 -18 -37z m451 3 c56 -32 75 -63 126 -201 28 -75 37 -111 29 -116 -6 -4 -61 -10 -122 -14 -61 -4 -113 -8 -116 -9 -3 0 -11 19 -18 44 -8 25 -16 52 -19 60 -3 9 -15 -13 -27 -50 l-21 -65 -130 -12 c-71 -7 -133 -12 -136 -10 -4 1 19 72 51 157 51 135 64 160 99 191 52 46 91 59 173 55 50 -2 78 -10 111 -30z m-268 -625 c22 -6 22 -6 -22 -143 l-44 -138 -149 0 c-83 0 -150 1 -150 3 0 6 102 281 107 290 5 9 219 -1 258 -12z m532 -38 c30 -5 33 -11 72 -114 23 -60 41 -114 41 -120 0 -6 -56 -8 -152 -7 l-152 3 -38 125 c-21 69 -38 127 -38 129 0 4 225 -8 267 -16z"/>
</g>
	</symbol>
		
	<symbol id="icon-imdb" viewBox="0 0 24 24">
		<rect width="100%" height="100%" fill="#000000"/>
<path d="M14.31 9.588v.005c-.077-.048-.227-.07-.42-.07v4.815c.27 0 .44-.06.5-.165.062-.104.095-.405.095-.885v-2.866c0-.33-.004-.54-.033-.63-.022-.096-.067-.163-.14-.204zM22.416 0H1.62C.742.06.06.744 0 1.596V22.38c.06.874.712 1.542 1.555 1.617.015.003.03.003.045.003h20.845c.88-.088 1.55-.826 1.555-1.71V1.71C24 .82 23.305.07 22.416 0zM4.792 15.626H2.887V8.26h1.905v7.366zm6.54-.002H9.67v-4.97L9 15.623H7.812l-.698-4.86-.007 4.86H5.44V8.26h2.468c.083.523.16 1.048.23 1.574l.27 1.87.442-3.444h2.483v7.364zm4.977-2.18c0 .655-.044 1.094-.104 1.32-.062.22-.17.4-.326.52-.15.13-.34.218-.57.266-.223.045-.57.075-1.02.075l-.004-.002H11.98V8.26h1.426c.914 0 1.45.047 1.77.128.325.09.575.225.745.42.165.18.273.404.313.645.05.235.076.705.076 1.402v2.588zm4.944.475c0 .45-.045.764-.09.99-.06.224-.195.404-.405.568-.226.166-.48.24-.78.24-.22 0-.5-.06-.68-.136-.19-.094-.358-.237-.515-.427l-.116.47h-1.717V8.26l-.02-.003h1.8v2.4c.15-.175.315-.31.51-.4.196-.083.466-.127.69-.127.226-.003.45.036.66.115.17.07.32.185.436.33.09.125.15.27.18.42.03.138.044.43.044.87v2.054zM19.08 11.205c-.12 0-.194.04-.225.12-.03.08-.06.29-.06.624v1.946c0 .324.03.533.06.623.04.086.13.14.226.134.12 0 .272-.047.3-.14.03-.097.046-.32.046-.674l.03-.002v-1.89c0-.303-.015-.508-.06-.603-.044-.1-.195-.14-.315-.14z"/>
	</symbol>

	<symbol id="icon-eye" viewBox="0 0 24 24">
		<path d="M1 12s4-8 11-8 11 8 11 8-4 8-11 8-11-8-11-8z"></path>
		<circle cx="12" cy="12" r="3"></circle>
	</symbol>
  
	<symbol id="icon-disney" viewBox="0 0 400 330">
<path d="M82.868 0h15.505c44.486 1.79 86.669 14.11 127.589 30.891 18.495 7.588 36.065 16.864 53.298 26.956 13.498 7.908 25.105 16.644 38.049 26.519 6.805 5.192 13.202 10.964 19.462 16.772 15.429 14.317 29.854 31.08 40.498 49.257 2.202 3.761 4.204 8.208 6.251 12.351 1.858 3.763 3.115 6.432 3.77 8.009 4.426 10.641 6.991 22.567 6.543 34.134-.265 6.791-.908 13.662-2.622 20.227-4.35 16.644-14.402 32.029-26.319 44.681-10.636 11.297-25.295 19.524-39.564 25.362-38.9 15.921-81.77 19.572-122.969 11.523a682.493 682.493 0 0 1-15.532-3.225.124.124 0 0 0-.155.115c-.336 6.264-.213 16.201-7.513 18.779-4.9 1.728-11.478 2.086-16.214.195-6.259-2.495-9.458-8.555-10.553-14.992a211.79 211.79 0 0 1-2.285-18.114.624.624 0 0 0-.368-.518c-17.268-7.793-34.527-17.663-49.301-29.549-14.27-11.478-29.075-23.984-37.85-40.419-9.122-17.082 1.603-30.066 15.695-38.448 15.784-9.392 33.279-14.783 50.737-19.382 7.013-1.842 14.296-2.609 21.388-4.058a1 1 0 0 0 .802-.912c.452-6.747.204-13.804.776-20.246.739-8.372 1.771-16.696 2.764-25.042a117.764 117.764 0 0 1 4.177-20.051c1.604-5.315 4.838-7.836 9.803-3.747 6.416 5.28 9.641 13.737 11.648 21.698 3.716 14.748 4.323 30.589 4.602 44.504.002.12.104.213.226.208 9.605-.261 19.643-.669 29.207.226a262.911 262.911 0 0 1 43.751 7.859c14.593 3.916 28.215 9.388 37.859 21.083 6.047 7.327 9.423 17.843 5.701 27.031-3.796 9.366-11.77 16.937-21.707 19.307-5.808 1.386-12.988.026-18.57-1.901-3.283-1.138-4.771-4.244-1.143-6.29 4.966-2.809 9.79-4.785 13.467-9.379 5.684-7.11-5.622-11.243-10.185-12.736-8.651-2.831-17.361-4.815-26.265-6.645-16.95-3.477-34.168-5.427-51.654-5.852-.215-.006-.39.191-.385.434l1.927 89.154a.306.306 0 0 0 .234.301c26.266 5.48 53.715 5.587 80.223 1.928 18.469-2.552 35.791-7.705 52.018-16.875 6.296-3.559 11.952-7.696 16.967-12.413 14.624-13.751 21.396-33.969 18.779-53.82-.966-7.332-3.575-15.142-6.632-21.822-13.534-29.601-36.042-53.333-62.698-72.87-40.243-29.495-86.678-50.112-134.845-62.281-24.862-6.283-50.261-9.86-76.197-10.735-14.731-.493-28.75.155-42.054 1.941-4.785.643-9.702 2.162-14.934 3.553a11.224 11.224 0 0 0-3.84 1.865.157.157 0 0 0 0 .257c.835.561 1.593.889 2.271.983 2.706.375 5.413.749 8.121 1.121 3.358.457 7.345 1.817 8.51 5.378.824 2.53-.51 4.266-2.746 5.294-.789.36-1.608.624-2.459.789-5.423 1.04-11.749.743-17.286-.501C5.826 46.776 1.032 45.585 0 39.955v-3.434c1.329-5.972 4.377-11.713 8.267-16.298 4.287-5.073 10.099-8.377 16.319-10.593 4.596-1.632 10.938-3.252 19.028-4.859A263.137 263.137 0 0 1 82.868 0zm-5.29 221.559c4.572 4.407 8.993 8.847 14.017 12.572a254.492 254.492 0 0 0 30.745 19.541c9.232 4.984 18.025 8.431 27.346 11.797.253.095.523-.079.514-.332a1607.062 1607.062 0 0 1-.217-77.22.25.25 0 0 0-.262-.257 638.39 638.39 0 0 0-19.611 1.719 268.314 268.314 0 0 0-41.576 7.629c-5.657 1.505-12.298 3.587-16.843 7.251-6.485 5.228 1.874 13.424 5.887 17.3z"/>
	</symbol>

	<symbol id="icon-wb" viewBox="-20 -35 280 320" >
<path d="M 257.725 54.256 C 257.747 43.538 253.753 20.511 253.033 20.341 L 227.023 13.991 C 227.023 13.991 223.029 -0.659 222.309 -0.829 L 195.579 -7.412 C 195.579 -7.412 191.706 -21.691 190.889 -21.892 C 190.889 -21.892 119.126 -33.833 117.99 -33.643 C 117.99 -33.643 47.141 -21.036 47.09 -20.262 L 43.84 -7.412 C 43.84 -7.412 16.204 -0.171 16.042 0.485 L 12.419 13.991 C 12.419 13.991 -14.683 20.999 -15.031 22.311 C -17.228 32.841 -18.316 43.538 -18.282 54.256 C -18.282 149.099 35.898 231.43 116.83 280.503 C 117.668 281.14 121.766 281.141 122.612 280.503 C 203.522 231.43 257.725 149.099 257.725 54.256 Z"/>
<path d="M 109.607 236.978 C 109.607 237.634 108.887 237.952 108.167 237.295 C 88.289 216.549 74.935 191.207 65.902 163.537 L 52.177 171.35 C 48.554 173.636 45.674 172.662 43.514 169.042 C 25.099 139.404 13.162 90.712 12.094 56.437 C 12.05 54.867 31.88 36.686 31.88 38.337 C 31.88 80.487 39.822 119.674 52.479 145.353 C 53.547 147.322 60.049 144.04 60.049 144.04 C 52.479 113.407 48.136 72.59 49.227 25.486 C 49.227 23.836 70.175 13.948 70.175 15.261 C 69.083 83.747 75.214 131.169 88.591 169.042 C 88.939 170.016 89.311 142.686 89.311 127.887 L 88.591 9.672 C 88.591 8.359 109.619 4.819 109.538 5.396 L 109.607 236.978 Z M 130.926 4.422 C 130.926 4.422 129.731 4.833 129.835 5.417 L 129.835 236.977 C 129.835 237.633 130.555 237.951 131.275 237.294 L 131.275 237.21 C 199.249 179.924 219.778 137.477 219.778 111.734 C 219.778 97.254 213.624 86.394 197.739 82.435 C 205.866 74.226 210.368 63.56 210.374 52.5 C 210.374 25.826 179.323 7.387 130.926 4.422 Z M 150.412 26.101 C 172.451 27.477 189.077 38.338 189.077 51.506 C 189.077 65.33 178.349 80.148 150.412 94.903 L 150.412 26.101 Z M 186.172 100.895 C 193.047 100.895 197.739 106.165 197.739 115.396 C 197.739 128.564 187.267 154.243 150.412 191.778 L 150.412 117.364 C 171.731 103.54 178.579 100.895 186.172 100.895 Z" fill="#fff"/>
	</symbol>

	<symbol id="icon-universal" viewBox="0 0 135 95">
<g fill-rule="evenodd" clip-rule="evenodd"><path d="M22.311 32.623C28.184 14.797 42.006 1.216 65.156 1.216c21.424 0 37.317 13.921 43.02 31.747-6.048-16.638-22.407-25.036-42.449-25.036-19.868 0-37.197 8.229-43.416 24.696zm85.692 27.164C102.3 77.613 85.889 91.363 65.155 91.363c-21.942 0-36.799-13.58-42.672-31.236 6.219 16.467 23.321 23.042 43.015 23.042 19.869-.001 36.459-6.745 42.505-23.382z M74.798 32.775c-.577.34-1.963.17-2.194.34h-.232c.578-.68-.345-1.358.578-1.358.694-.001 1.271.678 1.848 1.018zm55.19 21.561v-4.414l-.809 1.019h-5.426V39.226l.692-1.358h-4.618l.693 1.358v13.92l-.693 1.19h10.161zm-18.589-5.942h-3.695l1.849-5.773 1.846 5.773zm5.311 5.942-5.427-16.468h-3.81l.462 1.358-5.08 15.11h4.156l-.693-1.189.577-1.697h5.312l.577 1.697-.808 1.189h4.734zm-16.626-4.754c0-2.716-1.501-4.075-3.58-5.093-1.269-.679-3.233-1.019-3.233-2.376 0-.679.578-1.019 1.501-1.019 1.155 0 3.117.679 4.734 1.698v-5.433l-.923 1.188c-.922-.509-2.54-1.018-3.695-1.018-3.81 0-4.964 2.376-4.964 4.583 0 3.056 1.269 4.414 3.462 5.603 1.617.85 3.118.85 3.118 2.207 0 1.188-.923 1.357-1.385 1.357-1.155 0-3.349-.678-5.195-2.545v6.111l.923-1.359c.808.51 2.77 1.359 4.387 1.359 3.349.001 4.85-2.206 4.85-5.263zm-18.011-6.281c0 1.188-.808 2.037-1.848 2.037h-2.193v-4.075h2.539c.808 0 1.502.679 1.502 2.038zm3.808 11.035-3.001-6.451c1.501-.85 2.541-2.547 2.541-4.923 0-2.887-1.156-5.094-4.387-5.094h-6.929l.693 1.358v13.92l-.693 1.189h4.618l-.692-1.189v-4.752h1.385l2.193 4.752-.692 1.189h4.964v.001zm-16.048 0v-4.414l-.807 1.019h-5.774v-3.226h3.696l.808 1.019V43.47l-.808 1.019h-3.696v-3.226h5.774l.807 1.189v-4.584H59.327l.693 1.358v13.92l-.693 1.19h10.506zM56.556 37.868h-4.041l.692 1.358-2.77 8.998-2.771-8.998.809-1.358H43.74l5.196 16.468h2.309l5.311-16.468zM40.854 54.336l-.693-1.19v-13.92l.693-1.358H36.12l.693 1.358v13.92l-.693 1.19h4.734zm-9.122-16.468h-3.925l.693 1.358v8.149l-5.773-9.507h-3.464l.693 1.358v13.92l-.693 1.19h3.926l-.693-1.19v-8.487l6.004 9.677h2.54v-15.11l.692-1.358zm-16.279 0h-4.734l.693 1.358v8.999c0 2.037-.923 2.885-2.309 2.885-1.386 0-2.309-.848-2.309-2.885v-8.999l.693-1.358H2.752l.693 1.358v9.168c0 4.584 1.732 6.281 5.658 6.281 3.81 0 5.542-1.697 5.542-6.281v-9.168l.808-1.358zm72.046 23.086.462-2.375H71.104s2.772 3.227 3.001 4.244c.579 2.207-.229.34-.229 3.734 0 3.057-2.195 10.525-2.195 10.525s-.231.34-.694 2.887c-.114.85.694 2.207 1.272 1.867.46-.338-1.156-.508.691-1.697.694-.34.116-1.188.116-1.188s1.155-.17 1.732-2.717c1.154.34.809-.68 3.118-1.527.692-.17 1.501-1.189 3.809-4.754 1.849-2.717 1.155-3.396 2.426-4.414 1.386-1.02 1.501.17 1.962-.68 1.04-2.037 1.386-3.905 1.386-3.905zM59.904 31.077c-.692-1.358-.23-3.226.463-5.093.577-1.188 1.962-1.867 3.117-1.188 1.385-1.528 1.731.17 2.886-.679 1.501-.849.693 2.716 2.194 3.565.578-2.377-1.385-4.245-.116-5.433.925-.849 1.617-1.358 1.964-2.377.576-1.528.692-2.717 1.154-2.887.923-.509 1.732-1.358 2.54-2.546-.577-.51-1.501-.849-1.27-1.868.347-1.019 2.31 1.188 3.002-.679-1.27-.679-2.539-2.377-3.233-2.886-.577.849-.808.509-1.501-.169-1.154-1.358-1.154-.17-1.846-1.019-.579 1.697.231 1.527.461 1.867.694 1.188-.693-1.019-.577 2.037 0 .679-.694.849-1.27-.849-.347-.849-2.656-.679-3.002-1.528.346-.849-8.416-.712-8.416.646-.924.849-.937 3.428-2.322 5.805-1.155 1.868-1.501 4.753-1.501 4.753s1.617 9.677 1.848 8.658c.346-2.037-.693-3.904-.577-5.942.115.34 1.731 8.488 2.54 8.488 0 0 1.501 2.208 1.847 2.208h6.004s.461-2.716.808-3.056c.347-.509-1.501-.169-1.732.34-.114.509-.345 1.188-.808 1.528-.462.17-1.5.34-1.731.34-.232 0-.926-2.036-.926-2.036zm8.89-1.019c-.692-.849-.346-.679.116-.679.462 0 1.847 2.038 2.886 1.868 1.039 0-.231.679-.231.679s-.692-.51-1.038-.17c-.231.17-.81-.509-1.733-1.698z"/></g>
	</symbol>

	<symbol id="icon-sony" viewBox="16.7 19.5 255 280" >
<path d="M252.244 30.142c-.194 0-11.217 4.305-11.217 6.529 0 .957-4.053 52.12-4.247 55.217-.228 3.095-.455 15.197-.552 26.876-.129 21.867.033 27.243 1.394 45.451 1.265 16.801 3.696 40.695 4.28 41.989.227.507 13.617-4.756 13.617-4.756s1.297-15.225 1.556-17.532c.26-2.336 1.265-20.854 1.427-29.129.194-8.274 1.005-43.678.875-46.295-.908-21.276-1.881-35.855-3.275-48.266-.292-2.392-3.079-30.141-3.858-30.084zm-27.266 11.059c-.162-.056-11.445 4.419-11.639 5.039-.097.337-2.659 34.052-2.95 37.063-2.302 25.92-3.08 55.808-1.945 75.424.94 16.464 2.464 35.122 3.761 46.155.194 1.632 1.458 12.664 1.815 12.973.162.113 13.325-4.896 13.519-5.796.065-.451 2.011-31.775 2.302-36.868.584-11.144 1.103-28.707 1.362-44.466.13-8.528.065-14.156-.324-21.529-.779-14.185-5.706-67.967-5.901-67.995zM197.583 53.05c-.519-.534-10.699 3.236-11.348 3.518-.292.112-6.16 61.38-6.16 89.636 0 15.422 3.567 59.325 3.567 59.944 0 1.014 2.334 22.824 2.528 22.994.227.196 11.347-4.278 11.834-4.644.875-.591 2.626-18.603 2.788-20.601.519-5.319 1.232-17.477 1.848-30.676.81-16.745.81-51.953.032-62.76-1.069-15.056-1.524-21.134-1.88-24.906-.194-2.082-2.82-32.112-3.209-32.505zm-30.801 11.595c-.908.253-7.327 2.646-7.327 2.646s-5.414 52.373-6.322 66.248c-.195 3.096-.454 12.215-.551 20.263-.162 15.085.259 25.639 1.394 37.149.292 2.617 5.544 49.109 5.901 49.109.389 0 10.958-4.39 10.958-4.39s3.728-53.893 3.955-81.868c.13-15.394.065-20.686-.356-27.017-1.167-17.421-5.998-62.619-7.652-62.14zm-27.396 10.891c-.162-.056-4.312 1.239-4.701 1.52-.68.478-2.853 18.011-3.08 19.475-2.172 12.974-3.112 18.996-4.733 30.395-.195 1.463-1.005 9.484-1.232 11.256-1.297 11.736-1.459 15.395-1.459 30.818 0 15.759.065 17.476 1.621 32.786.94 9.597 7.003 48.688 7.586 48.688.487 0 5.285-2.027 5.934-2.477.389-.309 1.394-10.61 3.955-30.169 3.372-25.385 4.02-33.941 4.28-55.527.129-11.144.064-15.479-.357-21.247-.81-11.229-4.474-39.541-4.539-40.16-.195-1.943-3.08-25.33-3.275-25.358zm-27.558 11.257c-.162-.028-5.025 1.83-5.252 1.943-.292.168-.584 39.146-1.362 42.411-.194.704-3.469 16.435-3.728 17.786-2.496 12.187-3.307 17.308-3.793 24.569-.259 3.884 1.686 28.003 2.821 34.053.842 4.616 2.691 13.819 3.858 21.023.389 2.365.616 32.899.778 33.125.422.59 5.771-1.661 5.998-2.562.097-.337.518-32.786.972-35.685.292-1.942 6.03-45.113 6.03-52.768 0-8.302-1.134-20.01-3.079-31.38-.649-3.799-1.946-12.692-2.14-13.93-.195-1.239-.908-38.528-1.103-38.585zM84.757 98.022c-.259-.028-4.571 1.576-4.766 1.689-.324.169-.487 48.096-.876 49.532-.259.957-4.668 20.009-4.895 21.022-1.686 7.121-2.431 13.368-2.431 19.982 0 5.995.551 9.878 2.464 17.871.551 2.308 3.468 14.438 3.89 15.929.389 1.295.551 48.294.746 48.462.162.142 5.9-2.082 5.933-2.11.032-.056.486-48.997.973-50.742.324-1.098 1.75-8.471 2.009-9.85 4.475-24.09 4.507-33.603.033-51.924-.227-1.013-1.686-7.121-1.881-7.739-.259-.788-.778-52.065-1.199-52.122zm-26.78 11.342c-.227-.562-5.641 1.52-5.641 1.52l-.032 75.846s-9.228 11.336-4.56 14.769c.908.647 3.879 4.705 4.138 5.127.389.648.551 76.24.811 76.382.323.168 4.214-1.098 5.057-1.662.324-.197.421-76.042.421-76.042s6.388-9.85 6.063-13.002c-.227-1.97-5.219-10.441-5.219-10.441-.357-5.488-.941-72.243-1.038-72.497zm-26.228 10.385s-4.766 1.323-4.928 1.661c-.195.422-.325 168.211-.13 171.334.032.564 4.992-1.266 5.058-1.604.097-.309.129-39.005.097-85.977l-.097-85.414z"/>
	</symbol>

	<symbol id="icon-paramount" viewBox="0 0 355 300">
<path d="M140.9 229.37c-1.68-.7-4.43-3.78.15-12.38l10.63-22.22c.32-.67-.45-1.51-.94-.94l-9.3 9.35c-4.4 4.59-11.86 17.5-13.31 19.89l-11.29 18.67c.84-.03 1.54.63 1.57 1.47 0 .28-10.51 18.13-10.51 18.13-2.52 4.3 2.01 7.31 2.62 6.32 16.23-26.14 25.66-24.05 25.66-24.05l5.42-12.54c.29-.63 0-1.37-.62-1.65-.02-.01-.05-.02-.08-.03zM177.79 11C85.02 11 9.81 86.17 9.81 178.89a167.05 167.05 0 0 0 32.84 99.69c7.05-3.04 10.96-7.59 13.76-11.07l31.28-39.98c.66-.84 1.52-1.51 2.5-1.93l4.71-2.03 51.43-65.2 7.46-5.84 15.32-21.32c.4-.55.88-1.04 1.43-1.44l6.69-4.86a4.78 4.78 0 0 1 5.55-.05l8.11 5.69c4.3 3.02 7.79 7.06 10.16 11.75l32.5 57.05a5.1 5.1 0 0 0 2.54 2.44c6.37 3.17 10.27 3.73 18.61 12.79 3.89 4.22 20.95 23.29 44.85 52.91a33.9 33.9 0 0 0 13.49 10.93 166.98 166.98 0 0 0 32.73-99.56C345.76 86.17 270.56 11 177.79 11M55.11 188.15l-10.89-3.54-6.73 9.26v-11.44l-10.89-3.54 10.89-3.54v-11.44l6.73 9.26 10.89-3.54-6.73 9.26 6.73 9.25zm-2.58 37.44-3.54 10.88-3.54-10.88H34l9.26-6.73-3.54-10.88 9.26 6.73 9.26-6.73-3.54 10.88 9.26 6.73H52.51zm2.19-86.66 3.54 10.88-9.26-6.73-9.26 6.73 3.54-10.88-9.26-6.73h11.45l3.54-10.88 3.54 10.88H64l-9.26 6.73zm18.39-36.06v11.44l-6.72-9.25-10.89 3.54 6.73-9.26-6.73-9.26 10.89 3.54 6.73-9.26V95.8l10.89 3.53-10.89 3.54zm28.62-28.6-3.54 10.87-3.54-10.88H83.2l9.26-6.73-3.54-10.88 9.26 6.72 9.26-6.73-3.54 10.89 9.26 6.73h-11.45zm36.07-18.38-6.73 9.26V53.71l-10.89-3.54 10.89-3.54V35.19l6.73 9.26 10.89-3.54-6.73 9.26 6.73 9.26zm45.71-10.49 3.54 10.88-9.26-6.73-9.26 6.73 3.53-10.88-9.26-6.73h11.45l3.54-10.88 3.54 10.88h11.45l-9.26 6.72zm40.99 8.31v11.44l-6.73-9.26-10.89 3.54 6.73-9.26-6.73-9.26 10.89 3.54 6.73-9.26v11.44l10.89 3.54zm75.96 115.94 10.89 3.54 6.73-9.26v11.44l10.89 3.54-10.89 3.54v11.44l-6.73-9.26-10.89 3.54 6.74-9.26zm6.12-48.32 3.54 10.88h11.45l-9.26 6.73 3.54 10.88-9.27-6.73-9.26 6.73 3.54-10.88-9.27-6.73h11.44l3.54-10.88zm-49.19-36.18-3.54-10.88H242.4l9.26-6.73-3.53-10.88 9.26 6.73 9.26-6.72-3.53 10.88 9.26 6.73h-11.45l-3.54 10.88zm25.09 29.17v-11.44l-10.89-3.54 10.89-3.53V84.36l6.73 9.26 10.89-3.54-6.73 9.26 6.73 9.26-10.89-3.54zm27.64 111.27-3.54 10.88-3.54-10.88h-11.45l9.27-6.73-3.54-10.88 9.26 6.73 9.27-6.73-3.54 10.88 9.26 6.73zm-71.49 50.33c.81-1.17 2.12-4.39-.34-10.35l-7.43-19.98c-1.01-2.55 1.2-4.1 2.68-2.42 0 0 14.05 16.19 17.68 22.95l6.93 11.5c5.96.38 22.41.83 38.24.83a45 45 0 0 1-4.41-5.09c-27.02-33.48-44.15-52.1-44.32-52.29-5.48-5.95-8.01-7.09-12.18-8.99-.6-.27-1.26-.57-1.94-.89v5.08c.04.34-.2.66-.55.7a.624.624 0 0 1-.65-.38l-39.72-69.74-.11-.22c-1.66-3.29-4.1-6.11-7.11-8.23l-3.87-2.72-18.95 43.7c2.95.001 4.933 3.024 3.76 5.73l-17.51 40.48h16.07c6.21 0 12.36 1.21 18.11 3.56l4.24 1.74s-12.78 26.28-12.78 40.12c.02 2.52.37 5.02 1.04 7.45h29.46l-1.36-8.3c11.56 2.58 23.25 4.51 35.02 5.77z"/>
	</symbol>

	<symbol id="icon-lionsgate" viewBox="0 0 607 328">
<path d="M297.001 15.801c17.954-.167 35.019 1.897 51.108 9.173 15.323 6.93 26.543 18.037 33.502 33.397 7.793 17.201 9.5 35.438 9.635 54.35H321.13c0-5.845.423-11.5-.117-17.062-.557-5.738-1.514-11.558-3.266-17.031-2.47-7.717-8.412-11.912-16.48-12.36-7.788-.432-13.865 3.073-17.975 9.644-7.442 11.896-8.956 25.387-9.135 38.884-.394 29.658-.23 59.325-.104 88.987.048 11.282.135 22.606 1.16 33.824.5 5.472 2.62 11.017 5.017 16.048 4.579 9.611 12.857 13.119 23.17 11.675 8.923-1.25 14.391-7.024 16.617-15.272 1.929-7.15 3.02-14.609 3.648-22.002.601-7.085.13-14.262.13-22.073H298.16v-53.279h95.164v156.674h-50.24l-2.198-22.416c-.948.463-1.735.58-1.984 1.008-10.242 17.588-26.51 24.901-45.861 26.89-18.816 1.933-37.304.872-54.543-7.776-15.03-7.541-24.413-20.167-30.513-35.556-6.891-17.38-9.678-35.632-10.537-54.076-1.037-22.276-1.67-44.622-1.142-66.906.673-28.46 3.09-56.807 14.557-83.487 12.762-29.69 35.267-46.286 67.256-50.05 6.09-.716 12.253-.82 18.882-1.208zM560 193.658c-18.825 0-37.152.11-55.475-.088-3.94-.042-5.094 1.016-5.077 5.037.157 35.15.09 70.301.09 105.452v5.364H424.28V21.135l169.667 1.79v65.077l-93.975-2.01v45.043h5.355c25.818-.006 51.636.044 77.454-.08 3.666-.018 5.263.62 5.206 4.882-.253 18.981-.11 37.967-.11 57.82H560z M15.182 265V21.498h75.335v6.227c0 71.294.052 142.588-.11 213.882-.012 4.936 1.517 6.02 6.18 5.982 26.316-.213 52.636-.103 78.955-.103h5.65v62.099H15.182V265z"/>
	</symbol>

	<symbol id="icon-amazon" viewBox="9 60 320 300">
<path d="M 243.504 167.162 C 243.504 178.894 243.882 190.556 243.379 202.288 C 242.875 215.636 246.525 227.087 254.077 237.203 C 254.959 238.397 255.777 239.592 256.532 240.856 C 259.239 245.423 258.735 248.584 255.022 252.097 C 247.091 259.543 239.224 267.06 231.294 274.507 C 226.574 278.933 223.616 278.862 218.832 274.507 C 212.413 268.676 201.273 252.097 199.951 253.502 C 192.021 262.143 183.651 270.151 173.014 274.156 C 156.588 280.408 139.909 281.391 123.419 274.858 C 107.559 268.535 98.055 255.469 94.531 237.273 C 90.629 216.971 92.642 197.652 103.846 180.44 C 112.342 167.443 124.112 159.786 137.643 155.079 C 151.615 150.302 166.028 148.475 180.503 146.86 C 184.595 146.368 194.602 145.314 194.538 143.839 C 194.413 136.392 195.105 128.805 193.531 121.499 C 191.517 112.155 186.042 106.676 177.671 104.639 C 171.692 103.163 165.776 103.585 159.986 105.763 C 151.175 109.135 145.699 115.949 143.496 126.065 C 142.301 131.615 139.971 133.582 135.126 133.02 C 124.804 131.826 114.482 130.632 104.223 129.437 C 100.006 128.946 97.804 125.363 98.684 120.796 C 104.035 91.642 121.153 75.273 145.825 67.756 C 164.769 61.996 183.965 61.645 202.972 67.616 C 218.266 72.393 231.105 80.823 238.28 97.543 C 242.372 107.027 243.315 117.284 243.441 127.541 C 243.567 140.678 243.441 153.955 243.504 167.162 C 243.441 167.162 243.504 167.162 243.504 167.162 Z M 194.538 189.081 C 194.538 185.568 194.035 175.593 192.084 175.803 C 187.3 176.295 182.455 176.365 177.671 177.068 C 169.3 178.262 161.119 180.58 154.322 186.482 C 144.44 195.123 142.363 206.925 143.999 220.202 C 145.951 235.798 158.412 244.439 171.755 239.24 C 180.818 235.728 186.357 228.281 190.196 218.938 C 194.224 209.454 194.538 199.267 194.538 189.081 Z"/>
<g transform="matrix(0.63, 0, 0, 0.7, 10, 21.8)">
<path d="M 256.1 463.8 C 179.8 463.3 111.3 443.7 49.4 402.4 C 36.8 394 24.8 384.8 13.4 374.7 C 12.4 373.8 8.7 368.5 10 366.7 C 11.3 364.7 13.5 364.5 15.4 365.4 C 19.8 367.5 24 369.8 28.3 372 C 67.7 392.8 109.2 407.8 152.7 417.3 C 192.1 425.9 231.9 429.9 272.3 428.8 C 330 427.2 385.6 415.6 439.1 394.1 C 441.7 393 454.7 391.1 456.4 395.2 C 458 399 448.8 407.5 446.5 409 C 412 431.4 374.2 445.8 334.2 454.7 C 307.8 460.7 281 463.6 256.1 463.8 Z"/>
<path d="m448.6 374.7c-11.5-.1-22.9 1.4-34.3 2.6-2.2.2-4.7.8-5.7-1.6-1.2-2.7 1.1-4.3 3-5.6 14.2-9.4 30.1-13.1 46.8-14 11.5-.7 22.9-.2 34.1 3.2 5.1 1.5 7.6 4.5 7.5 9.7-.6 27.8-9.9 52-30 71.7-.7.7-1.5 1.3-2.3 1.9-1.8 1.3-4 2.5-5.9.9-1.8-1.5-.8-3.7 0-5.5 5.9-14.7 11.9-29.3 14.8-45 .4-2 .5-4 .6-5.9.1-6.5-2.2-9.3-8.6-10.9-6.7-1.8-13.4-1.5-20-1.5z"/></g>
	</symbol>
	
</svg>