<svg xmlns="http://www.w3.org/2000/svg" style="display: none;">
  
  <symbol id="icon-wikipedia" viewBox="0 0 455 455">
  <path d="M0,0v455h455V0H0z M385,118.141c0,1.918-1.558,3.47-3.477,3.47h-9.736 c-3.546,0-6.744,2.15-8.081,5.439l-88.815,217.909L230.16,244.55L182.3,344.958L90.709,126.964 c-1.364-3.239-4.535-5.345-8.049-5.345h-9.181c-1.918,0-3.479-1.56-3.479-3.479v-8.099h79.147l-0.223,8.193 c-0.05,1.886-1.593,3.385-3.477,3.385h-13.249c-4.926,0-8.302,4.971-6.495,9.548l64.305,162.675l32.522-70.485l-41.099-96.434 c-1.373-3.215-4.526-5.312-8.031-5.312h-6.392c-1.918,0-3.479-1.552-3.479-3.47v-8.099h59.436v8.099c0,1.918-1.56,3.47-3.477,3.47 c-5.013,0-8.398,5.133-6.421,9.745l24.288,56.572l24.799-56.52c2.021-4.614-1.355-9.788-6.401-9.788h-9.284 c-1.927,0-3.479-1.56-3.479-3.479v-8.099h62.242v8.099c0,1.918-1.552,3.479-3.479,3.479h-10.358c-3.385,0-6.471,1.962-7.903,5.03 l-38.312,81.925l35.772,84.058l62.589-161.542c1.739-4.57-1.637-9.472-6.53-9.472H321.54c-1.918,0-3.479-1.56-3.479-3.479v-8.099 H385V118.141z"/>
  </symbol>

  <symbol id="icon-netflix" viewBox="0 0 397 514">
    <path d="M114.9,0.1l101.3,287.2v-0.2l8,22.6c44.6,126.1,68.5,193.7,68.6,193.8c0.1,0,6.8,0.4,15,0.9c24.7,1,55.2,3.8,78.4,6.6 c5.3,0.7,9.9,0.8,10.3,0.7L286.8,200.4L235.1,54.2C225.3,26.4,217,2.8,216.6,1.9L215.9,0L114.9,0.1L114.9,0.1z M296.4,0.3 l-0.3,113.2L296,226.7l-9.3-26.3l-12,252c11.8,33.4,18.2,51.2,18.3,51.3c0.1,0.1,6.8,0.6,14.9,0.9c24.8,1.1,55.2,3.8,78.5,6.7 c5.3,0.6,10,0.8,10.3,0.6c0.3-0.2,0.4-115.6,0.4-256.2L396.9,0.3H296.4z M114.9,0.1v255.8c0,140.7,0.2,256,0.3,256.1 c0.2,0.2,8.8-0.7,19.3-1.8c10.4-1.3,24.9-2.8,32.2-3.4c11.1-1.1,44.2-3.3,48-3.3c1.1,0,1.2-5.7,1.3-108.3l0.2-108.4l8.1,22.7l2.8,8 l12.2-251.8l-4.1-11.7L215.8,0.1L114.9,0.1z"/>
  </symbol>
  
  <symbol id="icon-hbo" viewBox="0 -10 512 240">
    <path d="M148 206L92.77 206L92.77 127.24L56.93 127.24L56.93 206L0 206L0 3L56.93 3L56.93 78.51L92.77 78.51L92.77 3L148 3L148 206Z" />
    <path d="M407.04 146.26c22.75 0 41.19-18.48 41.19-41.29c0-22.8-18.44-41.28-41.19-41.28c-22.75 0-41.19 18.49-41.19 41.28c0 22.81 18.44 41.29 41.19 41.29zm-52.39-41.29c0-29 23.46-52.52 52.39-52.52c28.94 0 52.4 23.51 52.4 52.52c0 29.01-23.46 52.52-52.4 52.52c-28.93 0-52.39-23.51-52.39-52.52zm-72.95 0c6.48-.82 17.29-8.25 21.1-13c-1.34 5.88-1.44 22.9 0.12 28.78c-4.34-6.7-14.63-14.96-21.22-15.79zM244.02 49.37c8.23 0 14.72 8.15 14.72 17.43c0 9.29-6.49 17.44-14.72 17.44h-28.3V49.37zm-0.1 77.47c8.23 0 14.72 8.15 14.72 17.43c0 9.29-6.49 17.44-14.72 17.44h-28.3v-34.87zm163.08 83.95C464.67 210.77 511.59 162.74 511.58 104.93C511.57 45.9 464.67 0.04 407 0c-57.6 0-87.03 42.5-94.3 59.61c0.07-25.75-25.25-56.15-54.87-56.18h-95.43V209.76l88.97 0.02c35.87 0 61.39-31.16 61.44-57.87c8.18 16.81 36.59 58.9 94.19 58.88z" />
  </symbol>
  
  <symbol id="icon-filmaffinity" viewBox="0 0 192 192">
	<rect width="192" height="192" fill="#4682B4"/>
	<g transform="translate(0,192) scale(.1,-.1)" fill="#FFFFFF" stroke="none">
		<path d="m952 1393 c-11 -21 -31 -73 -47 -115 l-28 -78 -208 0 c-248 0 -239 4 -239 -106 l0 -74 165 0 165 0 0 -115 0 -115 -165 0 -165 0 0 -150 0 -150 -145 0 -146 0 3 373 3 374 30 48 c38 61 90 103 157 126 47 16 89 18 346 19 l292 0 -18 -37z m451 3 c56 -32 75 -63 126 -201 28 -75 37 -111 29 -116 -6 -4 -61 -10 -122 -14 -61 -4 -113 -8 -116 -9 -3 0 -11 19 -18 44 -8 25 -16 52 -19 60 -3 9 -15 -13 -27 -50 l-21 -65 -130 -12 c-71 -7 -133 -12 -136 -10 -4 1 19 72 51 157 51 135 64 160 99 191 52 46 91 59 173 55 50 -2 78 -10 111 -30z m-268 -625 c22 -6 22 -6 -22 -143 l-44 -138 -149 0 c-83 0 -150 1 -150 3 0 6 102 281 107 290 5 9 219 -1 258 -12z m532 -38 c30 -5 33 -11 72 -114 23 -60 41 -114 41 -120 0 -6 -56 -8 -152 -7 l-152 3 -38 125 c-21 69 -38 127 -38 129 0 4 225 -8 267 -16z"/>
	</g>
  </symbol>
		
  <symbol id="icon-imdb" viewBox="0 0 24 24">
	<rect width="100%" height="100%" fill="#000000"/>
	<path d="M14.31 9.588v.005c-.077-.048-.227-.07-.42-.07v4.815c.27 0 .44-.06.5-.165.062-.104.095-.405.095-.885v-2.866c0-.33-.004-.54-.033-.63-.022-.096-.067-.163-.14-.204zM22.416 0H1.62C.742.06.06.744 0 1.596V22.38c.06.874.712 1.542 1.555 1.617.015.003.03.003.045.003h20.845c.88-.088 1.55-.826 1.555-1.71V1.71C24 .82 23.305.07 22.416 0zM4.792 15.626H2.887V8.26h1.905v7.366zm6.54-.002H9.67v-4.97L9 15.623H7.812l-.698-4.86-.007 4.86H5.44V8.26h2.468c.083.523.16 1.048.23 1.574l.27 1.87.442-3.444h2.483v7.364zm4.977-2.18c0 .655-.044 1.094-.104 1.32-.062.22-.17.4-.326.52-.15.13-.34.218-.57.266-.223.045-.57.075-1.02.075l-.004-.002H11.98V8.26h1.426c.914 0 1.45.047 1.77.128.325.09.575.225.745.42.165.18.273.404.313.645.05.235.076.705.076 1.402v2.588zm4.944.475c0 .45-.045.764-.09.99-.06.224-.195.404-.405.568-.226.166-.48.24-.78.24-.22 0-.5-.06-.68-.136-.19-.094-.358-.237-.515-.427l-.116.47h-1.717V8.26l-.02-.003h1.8v2.4c.15-.175.315-.31.51-.4.196-.083.466-.127.69-.127.226-.003.45.036.66.115.17.07.32.185.436.33.09.125.15.27.18.42.03.138.044.43.044.87v2.054zM19.08 11.205c-.12 0-.194.04-.225.12-.03.08-.06.29-.06.624v1.946c0 .324.03.533.06.623.04.086.13.14.226.134.12 0 .272-.047.3-.14.03-.097.046-.32.046-.674l.03-.002v-1.89c0-.303-.015-.508-.06-.603-.044-.1-.195-.14-.315-.14z"/>
  </symbol>
  
  <symbol id="icon-eye" viewBox="0 0 24 24">
    <path d="M1 12s4-8 11-8 11 8 11 8-4 8-11 8-11-8-11-8z"></path>
    <circle cx="12" cy="12" r="3"></circle>
  </symbol>
  
        <symbol id="icon-disney" viewBox="0 0 1684 1387">
            <title>Disney</title>
            <path d="M376.67 0L398.43 0C422.47 0.69 446.55 1.28 470.53 3.15C564.1 10.62 656.59 29.02 746.68 55.16C798.23 69.69 849 86.91 899.05 105.96C946.39 123.6 992.78 143.65 1038.7 164.66C1080.08 184.56 1120.64 206.15 1160.44 229.03C1189.63 245.85 1218.7 262.92 1246.91 281.35C1272.48 299.02 1297.23 317.83 1322.41 336.04C1339.68 349.15 1357.26 361.87 1374.02 375.66C1407.11 403.22 1438.99 432.27 1469.55 462.64C1502.79 496.14 1533.58 532.02 1562.25 569.5C1584.54 599.03 1605.11 629.93 1622.48 662.61C1630.3 677.71 1636.47 693.6 1644.65 708.51C1647.89 714.38 1650.81 720.44 1653.28 726.68C1658.8 740.46 1664.56 754.19 1668.69 768.46C1674.72 793.04 1680.8 817.77 1682.69 843.08C1685.07 871.89 1682.15 900.8 1678.65 929.39C1676.08 953.89 1667.98 977.34 1660.22 1000.59C1652.05 1020.87 1641.77 1040.23 1631.48 1059.5C1621.86 1077.63 1609.8 1094.29 1597.37 1110.59C1582.52 1129.64 1566.81 1148.07 1549.63 1165.06C1518.14 1195.25 1481.09 1219.04 1442.64 1239.35C1424.15 1248.75 1405.36 1257.57 1386.22 1265.59C1339.49 1284.29 1291.28 1299.41 1241.99 1309.71C1184.19 1322.65 1125.06 1329 1065.87 1330.23C1003.12 1331.18 940.16 1326.99 878.37 1315.73C852.91 1311.32 827.76 1305.43 802.55 1299.85C800.89 1299.5 799.19 1299.45 797.53 1299.42C797.1 1314.06 797.76 1329.07 793.41 1343.24C791.18 1351 788.9 1358.98 784.06 1365.59C777.46 1375.2 766.29 1380.64 755.11 1382.86C739.59 1385.87 723.4 1387.57 707.82 1384.01C690.31 1380.62 674.51 1369.6 665.4 1354.27C653.45 1334.49 650.47 1311.06 647.27 1288.61C645.12 1271.77 643.34 1254.87 641.62 1237.98C630.55 1231.81 618.77 1227.03 607.52 1221.19C576.14 1205.85 545.58 1188.85 515.91 1170.45C484.95 1150.75 454.23 1130.5 425.76 1107.3C410.21 1094.49 394.74 1081.58 379.56 1068.34C364.86 1056.36 351.51 1042.85 338.07 1029.49C313.8 1004.69 291.05 978.02 273.66 947.87C260.86 927.66 252.08 903.89 253.66 879.67C254.75 864.39 259.38 849.42 266.64 835.96C277.04 817.83 292.58 803.4 308.9 790.65C330.27 774.68 353.54 761.38 377.59 749.86C389.98 744.43 402.01 738.12 414.78 733.56C436.78 724.99 459.21 717.6 481.67 710.35C508.74 702.11 535.75 693.61 563.37 687.36C582.09 682.45 601.46 681.02 620.39 677.2C628.04 675.57 635.94 674.88 643.39 672.42C646.98 671.54 646.55 667.27 646.92 664.41C648.16 641.67 648.89 618.89 648.68 596.13C650.4 570.07 653.58 544.13 656.48 518.19C661.09 480.49 664.8 442.45 674.84 405.71C677.69 395.29 680.62 384.81 685.45 375.12C688.34 369.28 693.99 364.31 700.83 364.45C711.58 364.11 720.08 371.73 727.64 378.38C743.6 393.88 753.33 414.48 761.1 435.02C777.8 480.94 783.85 529.83 787.68 578.28C788.96 604.46 790.07 630.65 790.38 656.85C797.83 657.85 805.34 656.87 812.82 656.91C838.76 656.5 864.7 656 890.63 656.87C920.19 657.99 949.61 661.43 978.8 666.16C1020.93 672.04 1062.61 680.91 1103.6 692.23C1115.89 695.39 1127.98 699.25 1139.99 703.32C1162.9 710.74 1185.46 719.71 1206.25 731.95C1225.48 743.74 1243.46 757.74 1258.7 774.42C1271.35 788.55 1282.1 804.63 1288.47 822.59C1294.34 839.55 1297.95 857.79 1295.27 875.74C1292.8 892.49 1285.27 908.01 1276.43 922.27C1264.92 940.33 1248.85 955.38 1230.52 966.37C1209.97 978.11 1185.76 985.48 1161.98 981.66C1149.06 980.17 1136.24 977.69 1123.8 973.86C1118.06 971.89 1112.02 969.96 1107.44 965.84C1102.3 961.23 1103.11 951.93 1108.75 948.1C1125.49 937.05 1145.4 930.77 1160 916.56C1166.4 910.32 1173.35 903.81 1176.01 894.99C1178.59 886.6 1174.96 877.48 1168.92 871.52C1159.58 862.28 1147.03 857.41 1134.78 853.37C1121.5 848.21 1107.73 844.59 1094.14 840.4C1042.63 826.8 990.29 816.4 937.58 808.69C912.63 805.52 887.74 801.77 862.62 800.21C839.07 798.99 815.52 797.34 791.95 796.97C793.48 896.29 795.88 995.62 797.75 1094.95C798.5 1124.03 798.57 1153.14 799.69 1182.21C827.69 1187.32 855.6 1193.33 884.01 1195.56C896.83 1196.54 909.57 1198.16 922.4 1198.89C942.19 1200.94 962.08 1200.62 981.95 1201.06C1013.61 1201.63 1045.28 1200.23 1076.88 1198.26C1131.27 1193.78 1185.67 1186.31 1238.25 1171.28C1265.76 1163.53 1293.01 1154.48 1318.93 1142.39C1358.95 1124.14 1397.51 1101.93 1430.73 1072.89C1442.86 1061.91 1454.6 1050.37 1464.52 1037.32C1494.14 1000.31 1512.87 955.02 1519.41 908.16C1523.06 881.74 1523.28 854.71 1518.59 828.4C1511.94 788.97 1497.03 751.41 1479.21 715.79C1459.62 677.21 1436.32 640.51 1409.84 606.3C1347.65 527.47 1270.9 461.23 1188.72 404.03C1156.4 381.02 1122.42 360.51 1088.44 340.08C1049.93 317.89 1010.57 297.18 970.51 277.92C924.37 256.47 877.55 236.43 829.7 219.1C781.54 200.86 732.35 185.54 682.86 171.38C598.68 148.26 512.65 131.63 425.77 122.97C376.5 117.83 326.98 114.52 277.45 115.36C252.76 116.13 228.02 116.11 203.41 118.25C182.1 119.5 160.84 121.61 139.76 124.89C125.2 127.21 110.64 129.82 96.54 134.16C85.81 137.51 74.44 139.27 64.48 144.71C62.44 145.78 60.96 147.56 59.49 149.26C69.33 155.15 81.11 155.05 92.15 156.43C104.05 158 116.65 158.45 127.22 164.85C135.11 169.19 141.73 176.92 142.57 186.15C143.01 193.52 137.59 200.06 131.02 202.78C119.8 208.07 107.17 208.82 94.97 209.25C74.47 209.73 53.82 207.64 34.06 202.05C24.3 199.11 14.28 195.17 7.29 187.42C2.58 182.24 1 175.16 0 168.45L0 160.09C1.78 143.66 8.99 128.57 16.99 114.34C27.38 94.57 42.32 77.12 60.57 64.22C84.97 46.74 114.21 37.98 143.07 31.1C192.42 18.58 242.77 10.32 293.37 4.98C321.01 1.61 348.87 0.84 376.67 0ZM510.35 815.95C470.15 821.96 430.25 829.88 390.81 839.71C367.71 845.96 344.38 852.36 322.92 863.18C314.36 867.99 305.55 873.21 299.66 881.28C296.54 885.27 296.22 890.58 296.28 895.45C296.5 904.32 300.5 912.6 305.5 919.75C312.53 929.58 320.86 938.4 329.52 946.79C341.3 958.96 353.86 970.34 366.11 982.02C383.69 997.06 402.24 1010.98 421.28 1024.13C461.06 1050.87 501.88 1076.24 544.78 1097.7C576.03 1113.69 608.99 1126 642.07 1137.6C639.83 1026.11 639.02 914.59 641.45 803.12C597.64 806.04 553.86 809.9 510.35 815.95Z" />
        </symbol>

  
</svg>