<svg xmlns="http://www.w3.org/2000/svg" style="display: none;">

	<symbol id="icon-wikipedia" viewBox="0 0 455 455">
		<path d="M0,0v455h455V0H0z M385,118.141c0,1.918-1.558,3.47-3.477,3.47h-9.736 c-3.546,0-6.744,2.15-8.081,5.439l-88.815,217.909L230.16,244.55L182.3,344.958L90.709,126.964 c-1.364-3.239-4.535-5.345-8.049-5.345h-9.181c-1.918,0-3.479-1.56-3.479-3.479v-8.099h79.147l-0.223,8.193 c-0.05,1.886-1.593,3.385-3.477,3.385h-13.249c-4.926,0-8.302,4.971-6.495,9.548l64.305,162.675l32.522-70.485l-41.099-96.434 c-1.373-3.215-4.526-5.312-8.031-5.312h-6.392c-1.918,0-3.479-1.552-3.479-3.47v-8.099h59.436v8.099c0,1.918-1.56,3.47-3.477,3.47 c-5.013,0-8.398,5.133-6.421,9.745l24.288,56.572l24.799-56.52c2.021-4.614-1.355-9.788-6.401-9.788h-9.284 c-1.927,0-3.479-1.56-3.479-3.479v-8.099h62.242v8.099c0,1.918-1.552,3.479-3.479,3.479h-10.358c-3.385,0-6.471,1.962-7.903,5.03 l-38.312,81.925l35.772,84.058l62.589-161.542c1.739-4.57-1.637-9.472-6.53-9.472H321.54c-1.918,0-3.479-1.56-3.479-3.479v-8.099 H385V118.141z"/>
	</symbol>

	<symbol id="icon-netflix" viewBox="0 0 300 250">
		<defs>
		<linearGradient id="linear0" gradientUnits="userSpaceOnUse" x1="108.141998" y1="240.643005" x2="176.518005" y2="189.037994" gradientTransform="matrix(0.625,0,0,0.520833,-10,-8.333333)">
		<stop offset="0" style="stop-color:rgb(76.078431%,0%,0%);stop-opacity:0;"/>
		<stop offset="1" style="stop-color:rgb(61.568627%,0%,0%);stop-opacity:1;"/>
		</linearGradient>
		<linearGradient id="linear1" gradientUnits="userSpaceOnUse" x1="400.786011" y1="312.035004" x2="338.860992" y2="337.837006" gradientTransform="matrix(0.625,0,0,0.520833,-10,-8.333333)">
		<stop offset="0" style="stop-color:rgb(76.078431%,0%,0%);stop-opacity:0;"/>
		<stop offset="1" style="stop-color:rgb(61.568627%,0%,0%);stop-opacity:1;"/>
		</linearGradient>
		</defs>
		<g id="surface1">
		<path style=" stroke:none;fill-rule:nonzero;fill:rgb(76.078433%,0%,0%);fill-opacity:1;" d="M 125.25 0 L 67.828125 0 L 67.828125 250 C 86.660156 246.285156 106.332031 244.421875 125.25 243.722656 Z M 125.25 0 "/>
		<path style=" stroke:none;fill-rule:nonzero;fill:url(#linear0);" d="M 125.25 0 L 67.828125 0 L 67.828125 191.285156 C 86.660156 187.570312 106.332031 185.707031 125.25 185.007812 Z M 125.25 0 "/>
		<path style=" stroke:none;fill-rule:nonzero;fill:rgb(76.078433%,0%,0%);fill-opacity:1;" d="M 232.171875 250 L 232.171875 0 L 174.75 0 L 174.75 244.222656 C 208.273438 246 232.171875 250 232.171875 250 Z M 232.171875 250 "/>
		<path style=" stroke:none;fill-rule:nonzero;fill:url(#linear1);" d="M 232.171875 250 L 232.171875 84.085938 L 174.75 84.085938 L 174.75 244.222656 C 208.273438 246 232.171875 250 232.171875 250 Z M 232.171875 250 "/>
		<path style=" stroke:none;fill-rule:nonzero;fill:rgb(98.039216%,0%,0%);fill-opacity:1;" d="M 232.171875 250 L 125.25 0 L 67.828125 0 L 172.222656 244.089844 C 207.066406 245.796875 232.171875 250 232.171875 250 Z M 232.171875 250 "/>
		</g>
	</symbol>

	<symbol id="icon-hbo" viewBox="0 -10 512 240">
		<path d="M148 206L92.77 206L92.77 127.24L56.93 127.24L56.93 206L0 206L0 3L56.93 3L56.93 78.51L92.77 78.51L92.77 3L148 3L148 206Z" />
		<path d="M407.04 146.26c22.75 0 41.19-18.48 41.19-41.29c0-22.8-18.44-41.28-41.19-41.28c-22.75 0-41.19 18.49-41.19 41.28c0 22.81 18.44 41.29 41.19 41.29zm-52.39-41.29c0-29 23.46-52.52 52.39-52.52c28.94 0 52.4 23.51 52.4 52.52c0 29.01-23.46 52.52-52.4 52.52c-28.93 0-52.39-23.51-52.39-52.52zm-72.95 0c6.48-.82 17.29-8.25 21.1-13c-1.34 5.88-1.44 22.9 0.12 28.78c-4.34-6.7-14.63-14.96-21.22-15.79zM244.02 49.37c8.23 0 14.72 8.15 14.72 17.43c0 9.29-6.49 17.44-14.72 17.44h-28.3V49.37zm-0.1 77.47c8.23 0 14.72 8.15 14.72 17.43c0 9.29-6.49 17.44-14.72 17.44h-28.3v-34.87zm163.08 83.95C464.67 210.77 511.59 162.74 511.58 104.93C511.57 45.9 464.67 0.04 407 0c-57.6 0-87.03 42.5-94.3 59.61c0.07-25.75-25.25-56.15-54.87-56.18h-95.43V209.76l88.97 0.02c35.87 0 61.39-31.16 61.44-57.87c8.18 16.81 36.59 58.9 94.19 58.88z" />
	</symbol>

	<symbol id="icon-filmaffinity" viewBox="0 0 192 192">
		<rect width="192" height="192" fill="#4682B4"/>
		<g transform="translate(0,192) scale(.1,-.1)" fill="#FFFFFF" stroke="none">
		<path d="m952 1393 c-11 -21 -31 -73 -47 -115 l-28 -78 -208 0 c-248 0 -239 4 -239 -106 l0 -74 165 0 165 0 0 -115 0 -115 -165 0 -165 0 0 -150 0 -150 -145 0 -146 0 3 373 3 374 30 48 c38 61 90 103 157 126 47 16 89 18 346 19 l292 0 -18 -37z m451 3 c56 -32 75 -63 126 -201 28 -75 37 -111 29 -116 -6 -4 -61 -10 -122 -14 -61 -4 -113 -8 -116 -9 -3 0 -11 19 -18 44 -8 25 -16 52 -19 60 -3 9 -15 -13 -27 -50 l-21 -65 -130 -12 c-71 -7 -133 -12 -136 -10 -4 1 19 72 51 157 51 135 64 160 99 191 52 46 91 59 173 55 50 -2 78 -10 111 -30z m-268 -625 c22 -6 22 -6 -22 -143 l-44 -138 -149 0 c-83 0 -150 1 -150 3 0 6 102 281 107 290 5 9 219 -1 258 -12z m532 -38 c30 -5 33 -11 72 -114 23 -60 41 -114 41 -120 0 -6 -56 -8 -152 -7 l-152 3 -38 125 c-21 69 -38 127 -38 129 0 4 225 -8 267 -16z"/>
		</g>
	</symbol>
		
	<symbol id="icon-imdb" viewBox="0 0 24 24">
		<rect width="100%" height="100%" fill="#000000"/>
		<path d="M14.31 9.588v.005c-.077-.048-.227-.07-.42-.07v4.815c.27 0 .44-.06.5-.165.062-.104.095-.405.095-.885v-2.866c0-.33-.004-.54-.033-.63-.022-.096-.067-.163-.14-.204zM22.416 0H1.62C.742.06.06.744 0 1.596V22.38c.06.874.712 1.542 1.555 1.617.015.003.03.003.045.003h20.845c.88-.088 1.55-.826 1.555-1.71V1.71C24 .82 23.305.07 22.416 0zM4.792 15.626H2.887V8.26h1.905v7.366zm6.54-.002H9.67v-4.97L9 15.623H7.812l-.698-4.86-.007 4.86H5.44V8.26h2.468c.083.523.16 1.048.23 1.574l.27 1.87.442-3.444h2.483v7.364zm4.977-2.18c0 .655-.044 1.094-.104 1.32-.062.22-.17.4-.326.52-.15.13-.34.218-.57.266-.223.045-.57.075-1.02.075l-.004-.002H11.98V8.26h1.426c.914 0 1.45.047 1.77.128.325.09.575.225.745.42.165.18.273.404.313.645.05.235.076.705.076 1.402v2.588zm4.944.475c0 .45-.045.764-.09.99-.06.224-.195.404-.405.568-.226.166-.48.24-.78.24-.22 0-.5-.06-.68-.136-.19-.094-.358-.237-.515-.427l-.116.47h-1.717V8.26l-.02-.003h1.8v2.4c.15-.175.315-.31.51-.4.196-.083.466-.127.69-.127.226-.003.45.036.66.115.17.07.32.185.436.33.09.125.15.27.18.42.03.138.044.43.044.87v2.054zM19.08 11.205c-.12 0-.194.04-.225.12-.03.08-.06.29-.06.624v1.946c0 .324.03.533.06.623.04.086.13.14.226.134.12 0 .272-.047.3-.14.03-.097.046-.32.046-.674l.03-.002v-1.89c0-.303-.015-.508-.06-.603-.044-.1-.195-.14-.315-.14z"/>
	</symbol>

	<symbol id="icon-eye" viewBox="0 0 24 24">
		<path d="M1 12s4-8 11-8 11 8 11 8-4 8-11 8-11-8-11-8z"></path>
		<circle cx="12" cy="12" r="3"></circle>
	</symbol>
  
	<symbol id="icon-disney" viewBox="0 0 1684 1387">
		<path d="M376.67 0L398.43 0C422.47 0.69 446.55 1.28 470.53 3.15C564.1 10.62 656.59 29.02 746.68 55.16C798.23 69.69 849 86.91 899.05 105.96C946.39 123.6 992.78 143.65 1038.7 164.66C1080.08 184.56 1120.64 206.15 1160.44 229.03C1189.63 245.85 1218.7 262.92 1246.91 281.35C1272.48 299.02 1297.23 317.83 1322.41 336.04C1339.68 349.15 1357.26 361.87 1374.02 375.66C1407.11 403.22 1438.99 432.27 1469.55 462.64C1502.79 496.14 1533.58 532.02 1562.25 569.5C1584.54 599.03 1605.11 629.93 1622.48 662.61C1630.3 677.71 1636.47 693.6 1644.65 708.51C1647.89 714.38 1650.81 720.44 1653.28 726.68C1658.8 740.46 1664.56 754.19 1668.69 768.46C1674.72 793.04 1680.8 817.77 1682.69 843.08C1685.07 871.89 1682.15 900.8 1678.65 929.39C1676.08 953.89 1667.98 977.34 1660.22 1000.59C1652.05 1020.87 1641.77 1040.23 1631.48 1059.5C1621.86 1077.63 1609.8 1094.29 1597.37 1110.59C1582.52 1129.64 1566.81 1148.07 1549.63 1165.06C1518.14 1195.25 1481.09 1219.04 1442.64 1239.35C1424.15 1248.75 1405.36 1257.57 1386.22 1265.59C1339.49 1284.29 1291.28 1299.41 1241.99 1309.71C1184.19 1322.65 1125.06 1329 1065.87 1330.23C1003.12 1331.18 940.16 1326.99 878.37 1315.73C852.91 1311.32 827.76 1305.43 802.55 1299.85C800.89 1299.5 799.19 1299.45 797.53 1299.42C797.1 1314.06 797.76 1329.07 793.41 1343.24C791.18 1351 788.9 1358.98 784.06 1365.59C777.46 1375.2 766.29 1380.64 755.11 1382.86C739.59 1385.87 723.4 1387.57 707.82 1384.01C690.31 1380.62 674.51 1369.6 665.4 1354.27C653.45 1334.49 650.47 1311.06 647.27 1288.61C645.12 1271.77 643.34 1254.87 641.62 1237.98C630.55 1231.81 618.77 1227.03 607.52 1221.19C576.14 1205.85 545.58 1188.85 515.91 1170.45C484.95 1150.75 454.23 1130.5 425.76 1107.3C410.21 1094.49 394.74 1081.58 379.56 1068.34C364.86 1056.36 351.51 1042.85 338.07 1029.49C313.8 1004.69 291.05 978.02 273.66 947.87C260.86 927.66 252.08 903.89 253.66 879.67C254.75 864.39 259.38 849.42 266.64 835.96C277.04 817.83 292.58 803.4 308.9 790.65C330.27 774.68 353.54 761.38 377.59 749.86C389.98 744.43 402.01 738.12 414.78 733.56C436.78 724.99 459.21 717.6 481.67 710.35C508.74 702.11 535.75 693.61 563.37 687.36C582.09 682.45 601.46 681.02 620.39 677.2C628.04 675.57 635.94 674.88 643.39 672.42C646.98 671.54 646.55 667.27 646.92 664.41C648.16 641.67 648.89 618.89 648.68 596.13C650.4 570.07 653.58 544.13 656.48 518.19C661.09 480.49 664.8 442.45 674.84 405.71C677.69 395.29 680.62 384.81 685.45 375.12C688.34 369.28 693.99 364.31 700.83 364.45C711.58 364.11 720.08 371.73 727.64 378.38C743.6 393.88 753.33 414.48 761.1 435.02C777.8 480.94 783.85 529.83 787.68 578.28C788.96 604.46 790.07 630.65 790.38 656.85C797.83 657.85 805.34 656.87 812.82 656.91C838.76 656.5 864.7 656 890.63 656.87C920.19 657.99 949.61 661.43 978.8 666.16C1020.93 672.04 1062.61 680.91 1103.6 692.23C1115.89 695.39 1127.98 699.25 1139.99 703.32C1162.9 710.74 1185.46 719.71 1206.25 731.95C1225.48 743.74 1243.46 757.74 1258.7 774.42C1271.35 788.55 1282.1 804.63 1288.47 822.59C1294.34 839.55 1297.95 857.79 1295.27 875.74C1292.8 892.49 1285.27 908.01 1276.43 922.27C1264.92 940.33 1248.85 955.38 1230.52 966.37C1209.97 978.11 1185.76 985.48 1161.98 981.66C1149.06 980.17 1136.24 977.69 1123.8 973.86C1118.06 971.89 1112.02 969.96 1107.44 965.84C1102.3 961.23 1103.11 951.93 1108.75 948.1C1125.49 937.05 1145.4 930.77 1160 916.56C1166.4 910.32 1173.35 903.81 1176.01 894.99C1178.59 886.6 1174.96 877.48 1168.92 871.52C1159.58 862.28 1147.03 857.41 1134.78 853.37C1121.5 848.21 1107.73 844.59 1094.14 840.4C1042.63 826.8 990.29 816.4 937.58 808.69C912.63 805.52 887.74 801.77 862.62 800.21C839.07 798.99 815.52 797.34 791.95 796.97C793.48 896.29 795.88 995.62 797.75 1094.95C798.5 1124.03 798.57 1153.14 799.69 1182.21C827.69 1187.32 855.6 1193.33 884.01 1195.56C896.83 1196.54 909.57 1198.16 922.4 1198.89C942.19 1200.94 962.08 1200.62 981.95 1201.06C1013.61 1201.63 1045.28 1200.23 1076.88 1198.26C1131.27 1193.78 1185.67 1186.31 1238.25 1171.28C1265.76 1163.53 1293.01 1154.48 1318.93 1142.39C1358.95 1124.14 1397.51 1101.93 1430.73 1072.89C1442.86 1061.91 1454.6 1050.37 1464.52 1037.32C1494.14 1000.31 1512.87 955.02 1519.41 908.16C1523.06 881.74 1523.28 854.71 1518.59 828.4C1511.94 788.97 1497.03 751.41 1479.21 715.79C1459.62 677.21 1436.32 640.51 1409.84 606.3C1347.65 527.47 1270.9 461.23 1188.72 404.03C1156.4 381.02 1122.42 360.51 1088.44 340.08C1049.93 317.89 1010.57 297.18 970.51 277.92C924.37 256.47 877.55 236.43 829.7 219.1C781.54 200.86 732.35 185.54 682.86 171.38C598.68 148.26 512.65 131.63 425.77 122.97C376.5 117.83 326.98 114.52 277.45 115.36C252.76 116.13 228.02 116.11 203.41 118.25C182.1 119.5 160.84 121.61 139.76 124.89C125.2 127.21 110.64 129.82 96.54 134.16C85.81 137.51 74.44 139.27 64.48 144.71C62.44 145.78 60.96 147.56 59.49 149.26C69.33 155.15 81.11 155.05 92.15 156.43C104.05 158 116.65 158.45 127.22 164.85C135.11 169.19 141.73 176.92 142.57 186.15C143.01 193.52 137.59 200.06 131.02 202.78C119.8 208.07 107.17 208.82 94.97 209.25C74.47 209.73 53.82 207.64 34.06 202.05C24.3 199.11 14.28 195.17 7.29 187.42C2.58 182.24 1 175.16 0 168.45L0 160.09C1.78 143.66 8.99 128.57 16.99 114.34C27.38 94.57 42.32 77.12 60.57 64.22C84.97 46.74 114.21 37.98 143.07 31.1C192.42 18.58 242.77 10.32 293.37 4.98C321.01 1.61 348.87 0.84 376.67 0ZM510.35 815.95C470.15 821.96 430.25 829.88 390.81 839.71C367.71 845.96 344.38 852.36 322.92 863.18C314.36 867.99 305.55 873.21 299.66 881.28C296.54 885.27 296.22 890.58 296.28 895.45C296.5 904.32 300.5 912.6 305.5 919.75C312.53 929.58 320.86 938.4 329.52 946.79C341.3 958.96 353.86 970.34 366.11 982.02C383.69 997.06 402.24 1010.98 421.28 1024.13C461.06 1050.87 501.88 1076.24 544.78 1097.7C576.03 1113.69 608.99 1126 642.07 1137.6C639.83 1026.11 639.02 914.59 641.45 803.12C597.64 806.04 553.86 809.9 510.35 815.95Z" />
	</symbol>

	<symbol id="icon-wb" viewBox="-255 -225 785 1000">
		<path d="M452.70313-81.06183c-.84239-3.35906-1.68062-4.61897-3.35578-5.03749l-60.47605-15.96041-8.402-34.4363c-.41743-1.68062-.83703-2.94054-2.52312-3.35905l-62.1512-16.79964-7.5606-32.75786c-.41961-2.52093-1.68062-3.77866-3.36015-4.20155l-161.46726-29.9419c-2.64004-.49063-5.35329-.49063-8.00196 0l-161.47169 29.9419c-1.65658.42289-2.94381 1.68062-3.35686 4.20155l-7.54749 32.75786-62.15995 16.79964c-1.70029.41851-2.11443 1.67843-2.52749 3.35905l-8.37796 34.4363-60.49904 15.96041c-1.65658.4196-2.52967 1.67953-3.35687 5.03749-5.0211 26.03757-7.5464 53.75795-7.5464 81.47286 0 241.90313 125.97325 451.87012 314.12712 577.05328 2.52311 1.66095 5.04076 3.36124 6.72138 3.36124 1.68062 0 4.20045-1.70138 6.71821-3.36124C334.27315 452.28006 460.26384 242.31416 460.26384.41103c0-27.71382-2.52202-55.43529-7.5606-81.47286"/>
		<path fill="#fff" d="M115.8942 466.16975c0 1.70138-1.67613 2.52749-3.35249.86982-46.1886-52.91-77.27892-117.59853-98.2637-188.12442l-31.88587 20.15431c-8.41403 5.8789-15.1365 3.36124-20.14885-5.8767-42.8361-75.57649-70.5379-199.86033-73.06867-287.19241 0-4.20155.83485-6.72138 4.18734-10.91747 10.90873-13.4362 24.34494-26.87023 36.9474-38.6302 2.53076-2.51874 5.06261-.83812 5.06261 3.35687 0 107.49077 18.44855 207.42094 47.85173 272.92027 2.53077 5.03749 5.01782 5.03749 8.37797 2.52093l9.24559-5.87889c-17.62356-78.0985-27.7029-182.22585-25.17214-302.31143 0-4.195.83048-5.87561 3.35687-7.55404 9.20953-5.87998 26.0026-15.11574 40.30863-20.99463 4.18734-1.68062 5.01782-.8425 5.01782 2.52093C21.82767 75.69795 36.1337 196.62274 67.19778 293.19276c.83387 2.51656 3.36124 1.67953 3.36124-.83812-1.68499-35.27114-1.68499-66.34183-1.68499-104.13171l-1.67625-301.46676c0-3.36014.83387-5.03967 4.195-5.87998 14.27771-3.35905 26.87241-5.8756 41.98924-7.55623 1.68062 0 2.51437.83813 2.51437 2.51656v590.33323zM300.64209-6.59664c0-33.59272-38.63228-61.30217-89.854-64.66231V104.2499c64.6623-37.78552 89.854-75.57759 89.854-110.84654m-6.71702 125.96227c-17.63655 0-33.59052 6.7181-83.136 41.98925v189.78755c85.65912-95.73737 110.0118-161.2367 110.0118-194.8294 0-23.51119-10.92183-36.9474-26.8758-36.9474M166.28108 467.03957c-1.67515 1.65767-3.35577.83156-3.35577-.86982v-590.33214c0-1.67952.83703-2.51655 2.51765-2.51655C277.97012-119.12272 350.19084-72.09598 350.19084-4.0801c0 28.55523-10.91637 56.26686-29.39007 76.41899 36.94411 10.07716 51.22172 37.7866 51.22172 74.73837 0 65.50042-47.86485 173.82713-205.7414 319.9623"/>
	</symbol>

	<symbol id="icon-universal" viewBox="0 0 193 193">
<g fill-rule="evenodd" clip-rule="evenodd">
<path d="M55.294 82.711c5.772-17.826 19.354-31.407 42.103-31.407 21.051 0 36.67 13.921 42.273 31.747-5.943-16.638-22.58-28.691-42.273-28.691-19.524 0-35.992 11.884-42.103 28.351zM139.5 109.875c-5.604 17.826-21.73 31.576-42.104 31.576-21.561 0-36.161-13.58-41.933-31.236 6.112 16.467 22.58 28.182 41.933 28.182 19.524-.001 36.163-11.885 42.104-28.522z"/>
<path d="M108.771 81.863c-.85.34-1.867 0-2.717.679 0-.17-.17-.509-.51-.339h-.34c.85-.68-.508-1.358.85-1.358 1.02-.001 1.868.678 2.717 1.018zM189.922 103.424V99.01l-1.19 1.019h-7.978V88.314l1.017-1.358h-6.789L176 88.314v13.92l-1.018 1.19h14.94zM162.588 97.482h-5.432l2.717-5.773 2.715 5.773zm7.81 5.942l-7.98-16.468h-5.602l.68 1.358-7.471 15.11h6.111l-1.018-1.189.848-1.697h7.811l.848 1.697-1.188 1.189h6.961zM145.951 98.67c0-2.716-2.207-4.075-5.264-5.093-1.867-.679-4.754-1.019-4.754-2.376 0-.679.85-1.019 2.207-1.019 1.699 0 4.584.679 6.961 1.698v-5.433l-1.357 1.188c-1.357-.509-3.734-1.018-5.434-1.018-5.602 0-7.299 2.376-7.299 4.583 0 3.056 1.867 4.414 5.092 5.603 2.377.85 4.584.85 4.584 2.207 0 1.188-1.357 1.357-2.037 1.357-1.697 0-4.924-.678-7.639-2.545v6.111l1.357-1.359c1.189.51 4.074 1.359 6.451 1.359 4.925.001 7.132-2.206 7.132-5.263zM119.467 92.389c0 1.188-1.188 2.037-2.717 2.037h-3.225v-4.075h3.734c1.188 0 2.208.679 2.208 2.038zm5.601 11.035l-4.414-6.451c2.207-.85 3.736-2.547 3.736-4.923 0-2.887-1.699-5.094-6.451-5.094h-10.188l1.02 1.358v13.92l-1.02 1.189h6.791l-1.018-1.189v-4.752h2.037l3.225 4.752-1.018 1.189h7.3v.001zM101.471 103.424V99.01l-1.188 1.019h-8.489v-3.226h5.433l1.189 1.019v-5.264l-1.189 1.019h-5.433v-3.226h8.489l1.188 1.189v-4.584H86.022l1.019 1.358v13.92l-1.019 1.19h15.449zM81.948 86.956h-5.943l1.019 1.358-4.074 8.998-4.075-8.998 1.189-1.358h-6.961l7.64 16.468h3.395l7.81-16.468zM58.859 103.424l-1.019-1.19v-13.92l1.019-1.358h-6.961l1.019 1.358v13.92l-1.019 1.19h6.961zM45.447 86.956h-5.772l1.018 1.358v8.149l-8.488-9.507h-5.093l1.018 1.358v13.92l-1.018 1.19h5.772l-1.018-1.19v-8.487l8.827 9.677h3.735v-15.11l1.019-1.358zM21.509 86.956h-6.96l1.019 1.358v8.999c0 2.037-1.358 2.885-3.396 2.885-2.037 0-3.395-.848-3.395-2.885v-8.999l1.019-1.358H2.834l1.019 1.358v9.168c0 4.584 2.547 6.281 8.319 6.281 5.603 0 8.149-1.697 8.149-6.281v-9.168l1.188-1.358zM110.809 82.372c-.17.17-.34.339-.68.339v-.679c.17.001.34.171.68.34zM128.125 108.855c-.34-.508 0-1.188 0-1.188h-24.787l2.717 2.377c.68.34 1.359.85 1.697 1.867.85 2.207-.338.34-.338 3.734 0 3.057-.85 2.547-.85 2.547s-.17 3.564-2.037 5.771c-1.189 1.189-.34 2.207-.34 2.207s-.34.34-1.02 2.887c-.168.85 1.02 2.207 1.869 1.867.678-.338-1.699-.508 1.018-1.697 1.02-.34.17-1.188.17-1.188s1.697-.17 2.547-2.717c1.697.34 1.188-.68 4.584-1.527 1.018-.17 1.188-.51 1.018-1.359-.17-.848 1.189.17 4.584-3.395 2.717-2.717 1.697-3.396 3.566-4.414 2.037-1.02 2.207.17 2.885-.68 1.529-2.037 1.02-1.867 1.699-3.225l.338-.68c0 .003 1.02-.847.68-1.187zM86.871 80.165c-1.018-1.358-.339-3.226.68-5.093.849-1.188 2.886-1.867 4.583-1.188 2.037-1.528 2.546.17 4.244-.679 2.208-.849 1.019 2.716 3.226 3.565.85-2.377-2.037-4.245-.17-5.433 1.359-.849 2.377-1.358 2.887-2.377.848-1.528 1.018-2.717 1.697-2.887 1.357-.509 1.02-1.867 1.02-1.867s1.527.509 2.715-.679c-.848-.51-2.207-.849-1.867-1.868.51-1.019 3.396 1.188 4.414-.679-1.867-.679-3.734-2.377-4.754-2.886-.848.849-1.188.509-2.207-.169-1.697-1.358-1.697-.17-2.715-1.019-.85 1.697.34 1.527.678 1.867 1.02 1.188-1.018-1.019-.848 2.037 0 .679-1.02.849-1.867-.849-.51-.849-3.906-.679-4.415-1.528.509-.849 4.585-4.244 10.866-3.395-9.168-3.735-21.562.17-21.562 1.528-1.358.849-.849 1.698-1.528 1.867-1.019.51-2.207 3.735-2.207 3.735s.679.339-1.358 2.716c-1.698 1.868-2.207 4.753-2.207 4.753s1.188 2.037.849 4.414c-.169 1.867-.169.509.68 1.698.339.849.849 3.565 1.188 2.546.509-2.037-1.019-3.904-.849-5.942.17.34.679-.679.679.17 0 2.546 3.056 7.13 3.056 7.13s-1.188 1.188 0 1.188l-.339.679s.849 0 1.528.51c.509.509 1.019 1.019 1.528 1.019h8.828s.679-2.716 1.188-3.056c.51-.509-1.018 0-1.527-.509-.51-.509-.68.34-1.019.849-.169.509-.509 1.188-1.188 1.528-.68.17-2.207.34-2.547.34s-1.36-2.036-1.36-2.036zM98.416 78.637c.17-.509 1.018-.17 1.697-.17s.51 1.188 1.527 1.019c1.189-.34 1.189 1.019 2.717.849 1.527 0-.34.679-.34.679s-1.018-.51-1.527-.17c-.34.17 0-.17-.51-.509-.85-.849-.68 0-2.037-1.189-1.019-.849-2.037.17-1.527-.509z"/></g>
	</symbol>

<symbol id="icon-sony" viewBox="0 0 655 1000">
		<path d="M197.609,656.668V539.965c0-16.531-14.371-57.886-14.371-101.988c0-42.539,15.676-94.937,15.676-113.07l0.01-122.621
			l-43.84,20.453c-0.019,98.788-0.019,187.705,0.06,191.508c0.325,15.672,12.759,15.849,12.558,31.064
			c-0.239,17.663-12.951,26.215-12.558,36.112c0.21,5.336,0.218,97.347,0.166,194.937L197.609,656.668z"/>
		<path d="M210.143,650.836l41.248-19.198c-0.01-29.09,0.008-49.668,0.051-53.496c0.667-56.216-15.293-94.51-15.425-164.164
			c-0.12-62.769,16.729-108.021,18.034-159.773c0.09-3.327,0.124-34.923,0.133-77.692l-43.422,20.251l-0.075,125.688
			c0.243,17.61,12.442,55.248,12.442,96.995c0,41.74-13.18,101.8-12.91,116.266L210.143,650.836z"/>
		<path d="M263.691,625.916l44.543-20.729c-3.871-42.791-18.244-127.974-18.244-216.646c0-103.973,20.502-203.485,20.502-228.729
			v-9.568l-43.84,20.453c0.008,43.583,0.025,75.892,0.067,79.204c0.676,49.321,11.973,90.706,11.965,144.16
			c-0.018,52.525-14.239,126.466-14.908,179.529C263.734,577.404,263.709,597.48,263.691,625.916"/>
		<polygon points="40.69,276.108 2.408,293.967 2.408,747.515 40.665,729.712 		"/>
		<polygon points="51.448,724.692 90.576,706.482 90.604,252.827 51.482,271.071 		"/>
		<path d="M143.766,228.02l-42.457,19.805l0.037,453.646l42.326-19.699c0.184-101.37,0.313-193.588,0.104-195.834
			c-1.298-14.398-11.541-9.594-11.783-24.578c-0.301-17.983,11.791-27.414,11.791-38.436
			C143.783,418.808,143.775,328.305,143.766,228.02"/>
		<path d="M362.876,579.76c-5.772-58.154-14.157-142.621-14.157-217.969c0-76.342,8.489-173.666,14.196-236.003l-40.232,18.762
			c0,3.941,0,6.701-0.009,8.019c-0.086,25.244,15.46,109.271,15.766,213.394c0.296,99.109-13.318,187.465-16.142,232.679
			L362.876,579.76z"/>
		<path d="M404.962,334.364c0.419-68.692,6.23-156.437,11.646-233.628l-35.137,16.386c4.414,56.934,13.54,137.665,13.572,222.183
			c0.037,75.756-5.09,166.163-8.821,229.589l31.123-14.487C411.245,484.822,404.545,401.831,404.962,334.364"/>
		<path d="M473.738,528.165c-6.164-78.195-12.185-165.613-12.04-219.774c0.176-65.755,6.261-156.409,11.595-234.099l-32.165,15.001
			c4.809,68.584,11.722,151.587,12.081,223.338c0.315,64.199-5.058,150.967-8.955,229.256L473.738,528.165z"/>
		<path d="M502.32,514.858l25.609-11.916c-5.034-69.341-11.138-150.736-11.119-219.684c0.016-79.92,5.658-148.49,10.511-234.173
			l-30.12,14.048c5.728,73.906,12.41,150.852,12.351,223.008C509.501,353.887,506.251,440.247,502.32,514.858"/>
		<path d="M582.234,54.969c0.484-10.73,0.634-21.316,0.644-31.799l-29.742,13.871c1.035,11.209,1.874,21.321,2.227,31.004
			c3.686,99.72,10.391,101.526,10.156,192.014c-0.233,90.825-3.394,147.346-7.757,228.998l21.714-10.102
			c-3.052-83.907-7.66-128.359-7.711-221.071C571.722,181.15,577.83,153.324,582.234,54.969"/>
		<path d="M619.194,234.975c0.202,30.051-5.468,137.712-10.68,230.468l23.195-10.795c-3.218-94.65-7.766-189.948-8.093-222.008
			c-0.309-31.06,3.914-119.942,8.748-214.421c0.071-5.952,0.124-12.007,0.166-18.219l-23.705,11.061
			C613.807,109.369,619.904,196.604,619.194,234.975"/>
	</symbol>

<symbol id="icon-paramount" viewBox="-.42 0 636 436">
<g fill="#00083e"><path d="23.26c-7.94 17.93-16.01 28.33-22.45 28.33zm181.8-45.29c-.41 8.89-8.21 30.37-17.38 43.24-3.69 5.2-6.85 6.7-9.58 6.7-3.84 0-4.94-3.15-4.39-7.8.82-8.07 7.53-26.96 16.84-39.96 4.24-5.88 7.12-8.35 10.41-8.35s4.24 2.74 4.1 6.16zm-134.7-133.96c-1.68-.7-4.43-3.78.15-12.38l10.63-22.22c.32-.67-.45-1.51-.94-.94l-9.3 9.35c-4.4 4.59-11.86 17.5-13.31 19.89l-11.29 18.67c.84-.03 1.54.63 1.57 1.47 0 .28-.06.55-.19.79l-10.32 17.34c-2.52 4.3 2.01 7.31 2.62 6.32 16.23-26.14 25.66-24.05 25.66-24.05l5.42-12.54c.29-.63 0-1.37-.62-1.65-.02-.01-.05-.02-.08-.03z"/><path d="m354.79 0c-92.77 0-167.98 75.17-167.98 167.89a167.05 167.05 0 0 0 32.84 99.69c7.05-3.04 10.96-7.59 13.76-11.07l31.28-39.98c.66-.84 1.52-1.51 2.5-1.93l4.71-2.03 51.43-65.2 7.46-5.84 15.32-21.32c.4-.55.88-1.04 1.43-1.44l6.69-4.86a4.777 4.777 0 0 1 5.55-.05l8.11 5.69c4.3 3.02 7.79 7.06 10.16 11.75l32.5 57.05a5.112 5.112 0 0 0 2.54 2.44c6.37 3.17 10.27 3.73 18.61 12.79 3.89 4.22 20.95 23.29 44.85 52.91a33.9 33.9 0 0 0 13.49 10.93 166.982 166.982 0 0 0 32.73-99.56c-.01-92.69-75.21-167.86-167.98-167.86zm-122.68 177.15-10.89-3.54-6.73 9.26v-11.44l-10.89-3.54 10.89-3.54v-11.44l6.73 9.26 10.89-3.54-6.73 9.26 6.73 9.25zm-2.58 37.44-3.54 10.88-3.54-10.88h-11.45l9.26-6.73-3.54-10.88 9.26 6.73 9.26-6.73-3.54 10.88 9.26 6.73h-11.45zm2.19-86.66 3.54 10.88-9.26-6.73-9.26 6.73 3.54-10.88-9.26-6.73h11.45l3.54-10.88 3.54 10.88h11.45l-9.26 6.73zm18.39-36.06v11.44l-6.72-9.25-10.89 3.54 6.73-9.26-6.73-9.26 10.89 3.54 6.73-9.26v11.44l10.89 3.53-10.89 3.54zm28.62-28.6-3.54 10.87-3.54-10.88h-11.45l9.26-6.73-3.54-10.88 9.26 6.72 9.26-6.73-3.54 10.89 9.26 6.73h-11.45zm36.07-18.38-6.73 9.26v-11.44l-10.89-3.54 10.89-3.54v-11.44l6.73 9.26 10.89-3.54-6.73 9.26 6.73 9.26zm45.71-10.49 3.54 10.88-9.26-6.73-9.26 6.73 3.53-10.88-9.26-6.73h11.45l3.54-10.88 3.54 10.88h11.45l-9.26 6.72zm40.99 8.31v11.44l-6.73-9.26-10.89 3.54 6.73-9.26-6.73-9.26 10.89 3.54 6.73-9.26v11.44l10.89 3.54zm75.96 115.94 10.89 3.54 6.73-9.26v11.44l10.89 3.54-10.89 3.54v11.44l-6.73-9.26-10.89 3.54 6.74-9.26zm6.12-48.32 3.54 10.88h11.45l-9.26 6.73 3.54 10.88-9.27-6.73-9.26 6.73 3.54-10.88-9.27-6.73h11.44l3.54-10.88zm-49.19-36.18-3.54-10.88h-11.45l9.26-6.73-3.53-10.88 9.26 6.73 9.26-6.72-3.53 10.88 9.26 6.73h-11.45l-3.54 10.88zm25.09 29.17v-11.44l-10.89-3.54 10.89-3.53v-11.45l6.73 9.26 10.89-3.54-6.73 9.26 6.73 9.26-10.89-3.54zm27.64 111.27-3.54 10.88-3.54-10.88h-11.45l9.27-6.73-3.54-10.88 9.26 6.73 9.27-6.73-3.54 10.88 9.26 6.73h-11.44z"/><path d="m415.63 264.92c.81-1.17 2.12-4.39-.34-10.35l-7.43-19.98c-1.01-2.55 1.2-4.1 2.68-2.42 0 0 14.05 16.19 17.68 22.95l6.93 11.5c5.96.38 22.41.83 38.24.83a44.589 44.589 0 0 1 -4.41-5.09c-27.02-33.48-44.15-52.1-44.32-52.29-5.48-5.95-8.01-7.09-12.18-8.99-.6-.27-1.26-.57-1.94-.89v5.08c.04.34-.2.66-.55.7a.625.625 0 0 1 -.65-.38l-39.72-69.74-.11-.22c-1.66-3.29-4.1-6.11-7.11-8.23l-3.87-2.72-18.95 43.7a4.1 4.1 0 0 1 3.76 5.73l-17.51 40.48h16.07c6.21 0 12.36 1.21 18.11 3.56l4.24 1.74s-12.78 26.28-12.78 40.12c.02 2.52.37 5.02 1.04 7.45h29.46l-1.36-8.3c11.56 2.58 23.25 4.51 35.02 5.77z"/></g>
	</symbol>

</svg>