<svg xmlns="http://www.w3.org/2000/svg" style="display: none;">
  <symbol id="icon-netflix" viewBox="0 0 397 514">
    <path d="M114.9,0.1l101.3,287.2v-0.2l8,22.6c44.6,126.1,68.5,193.7,68.6,193.8c0.1,0,6.8,0.4,15,0.9c24.7,1,55.2,3.8,78.4,6.6 c5.3,0.7,9.9,0.8,10.3,0.7L286.8,200.4L235.1,54.2C225.3,26.4,217,2.8,216.6,1.9L215.9,0L114.9,0.1L114.9,0.1z M296.4,0.3 l-0.3,113.2L296,226.7l-9.3-26.3l-12,252c11.8,33.4,18.2,51.2,18.3,51.3c0.1,0.1,6.8,0.6,14.9,0.9c24.8,1.1,55.2,3.8,78.5,6.7 c5.3,0.6,10,0.8,10.3,0.6c0.3-0.2,0.4-115.6,0.4-256.2L396.9,0.3H296.4z M114.9,0.1v255.8c0,140.7,0.2,256,0.3,256.1 c0.2,0.2,8.8-0.7,19.3-1.8c10.4-1.3,24.9-2.8,32.2-3.4c11.1-1.1,44.2-3.3,48-3.3c1.1,0,1.2-5.7,1.3-108.3l0.2-108.4l8.1,22.7l2.8,8 l12.2-251.8l-4.1-11.7L215.8,0.1L114.9,0.1z"/>
  </symbol>
  <symbol id="icon-hbo" viewBox="0 -10 512 240">
    <path d="M148 206L92.77 206L92.77 127.24L56.93 127.24L56.93 206L0 206L0 3L56.93 3L56.93 78.51L92.77 78.51L92.77 3L148 3L148 206Z" />
    <path d="M407.04 146.26c22.75 0 41.19-18.48 41.19-41.29c0-22.8-18.44-41.28-41.19-41.28c-22.75 0-41.19 18.49-41.19 41.28c0 22.81 18.44 41.29 41.19 41.29zm-52.39-41.29c0-29 23.46-52.52 52.39-52.52c28.94 0 52.4 23.51 52.4 52.52c0 29.01-23.46 52.52-52.4 52.52c-28.93 0-52.39-23.51-52.39-52.52zm-72.95 0c6.48-.82 17.29-8.25 21.1-13c-1.34 5.88-1.44 22.9 0.12 28.78c-4.34-6.7-14.63-14.96-21.22-15.79zM244.02 49.37c8.23 0 14.72 8.15 14.72 17.43c0 9.29-6.49 17.44-14.72 17.44h-28.3V49.37zm-0.1 77.47c8.23 0 14.72 8.15 14.72 17.43c0 9.29-6.49 17.44-14.72 17.44h-28.3v-34.87zm163.08 83.95C464.67 210.77 511.59 162.74 511.58 104.93C511.57 45.9 464.67 0.04 407 0c-57.6 0-87.03 42.5-94.3 59.61c0.07-25.75-25.25-56.15-54.87-56.18h-95.43V209.76l88.97 0.02c35.87 0 61.39-31.16 61.44-57.87c8.18 16.81 36.59 58.9 94.19 58.88z" />
  </symbol>
  <symbol id="icon-eye" viewBox="0 0 24 24">
    <path d="M1 12s4-8 11-8 11 8 11 8-4 8-11 8-11-8-11-8z"></path>
    <circle cx="12" cy="12" r="3"></circle>
  </symbol>
</svg>