<svg xmlns="http://www.w3.org/2000/svg" style="display: none;">
  
  <symbol id="icon-wikipedia" viewBox="0 0 455 455">
  <path d="M0,0v455h455V0H0z M385,118.141c0,1.918-1.558,3.47-3.477,3.47h-9.736 c-3.546,0-6.744,2.15-8.081,5.439l-88.815,217.909L230.16,244.55L182.3,344.958L90.709,126.964 c-1.364-3.239-4.535-5.345-8.049-5.345h-9.181c-1.918,0-3.479-1.56-3.479-3.479v-8.099h79.147l-0.223,8.193 c-0.05,1.886-1.593,3.385-3.477,3.385h-13.249c-4.926,0-8.302,4.971-6.495,9.548l64.305,162.675l32.522-70.485l-41.099-96.434 c-1.373-3.215-4.526-5.312-8.031-5.312h-6.392c-1.918,0-3.479-1.552-3.479-3.47v-8.099h59.436v8.099c0,1.918-1.56,3.47-3.477,3.47 c-5.013,0-8.398,5.133-6.421,9.745l24.288,56.572l24.799-56.52c2.021-4.614-1.355-9.788-6.401-9.788h-9.284 c-1.927,0-3.479-1.56-3.479-3.479v-8.099h62.242v8.099c0,1.918-1.552,3.479-3.479,3.479h-10.358c-3.385,0-6.471,1.962-7.903,5.03 l-38.312,81.925l35.772,84.058l62.589-161.542c1.739-4.57-1.637-9.472-6.53-9.472H321.54c-1.918,0-3.479-1.56-3.479-3.479v-8.099 H385V118.141z"/>
  </symbol>

  <symbol id="icon-netflix" viewBox="0 0 397 514">
    <path d="M114.9,0.1l101.3,287.2v-0.2l8,22.6c44.6,126.1,68.5,193.7,68.6,193.8c0.1,0,6.8,0.4,15,0.9c24.7,1,55.2,3.8,78.4,6.6 c5.3,0.7,9.9,0.8,10.3,0.7L286.8,200.4L235.1,54.2C225.3,26.4,217,2.8,216.6,1.9L215.9,0L114.9,0.1L114.9,0.1z M296.4,0.3 l-0.3,113.2L296,226.7l-9.3-26.3l-12,252c11.8,33.4,18.2,51.2,18.3,51.3c0.1,0.1,6.8,0.6,14.9,0.9c24.8,1.1,55.2,3.8,78.5,6.7 c5.3,0.6,10,0.8,10.3,0.6c0.3-0.2,0.4-115.6,0.4-256.2L396.9,0.3H296.4z M114.9,0.1v255.8c0,140.7,0.2,256,0.3,256.1 c0.2,0.2,8.8-0.7,19.3-1.8c10.4-1.3,24.9-2.8,32.2-3.4c11.1-1.1,44.2-3.3,48-3.3c1.1,0,1.2-5.7,1.3-108.3l0.2-108.4l8.1,22.7l2.8,8 l12.2-251.8l-4.1-11.7L215.8,0.1L114.9,0.1z"/>
  </symbol>
  
  <symbol id="icon-hbo" viewBox="0 -10 512 240">
    <path d="M148 206L92.77 206L92.77 127.24L56.93 127.24L56.93 206L0 206L0 3L56.93 3L56.93 78.51L92.77 78.51L92.77 3L148 3L148 206Z" />
    <path d="M407.04 146.26c22.75 0 41.19-18.48 41.19-41.29c0-22.8-18.44-41.28-41.19-41.28c-22.75 0-41.19 18.49-41.19 41.28c0 22.81 18.44 41.29 41.19 41.29zm-52.39-41.29c0-29 23.46-52.52 52.39-52.52c28.94 0 52.4 23.51 52.4 52.52c0 29.01-23.46 52.52-52.4 52.52c-28.93 0-52.39-23.51-52.39-52.52zm-72.95 0c6.48-.82 17.29-8.25 21.1-13c-1.34 5.88-1.44 22.9 0.12 28.78c-4.34-6.7-14.63-14.96-21.22-15.79zM244.02 49.37c8.23 0 14.72 8.15 14.72 17.43c0 9.29-6.49 17.44-14.72 17.44h-28.3V49.37zm-0.1 77.47c8.23 0 14.72 8.15 14.72 17.43c0 9.29-6.49 17.44-14.72 17.44h-28.3v-34.87zm163.08 83.95C464.67 210.77 511.59 162.74 511.58 104.93C511.57 45.9 464.67 0.04 407 0c-57.6 0-87.03 42.5-94.3 59.61c0.07-25.75-25.25-56.15-54.87-56.18h-95.43V209.76l88.97 0.02c35.87 0 61.39-31.16 61.44-57.87c8.18 16.81 36.59 58.9 94.19 58.88z" />
  </symbol>
  
  <symbol id="icon-filmaffinity" viewBox="0 0 192 192">
	<rect width="192" height="192" fill="#4682B4"/>
	<g transform="translate(0,192) scale(.1,-.1)" fill="#FFFFFF" stroke="none">
		<path d="m952 1393 c-11 -21 -31 -73 -47 -115 l-28 -78 -208 0 c-248 0 -239 4 -239 -106 l0 -74 165 0 165 0 0 -115 0 -115 -165 0 -165 0 0 -150 0 -150 -145 0 -146 0 3 373 3 374 30 48 c38 61 90 103 157 126 47 16 89 18 346 19 l292 0 -18 -37z m451 3 c56 -32 75 -63 126 -201 28 -75 37 -111 29 -116 -6 -4 -61 -10 -122 -14 -61 -4 -113 -8 -116 -9 -3 0 -11 19 -18 44 -8 25 -16 52 -19 60 -3 9 -15 -13 -27 -50 l-21 -65 -130 -12 c-71 -7 -133 -12 -136 -10 -4 1 19 72 51 157 51 135 64 160 99 191 52 46 91 59 173 55 50 -2 78 -10 111 -30z m-268 -625 c22 -6 22 -6 -22 -143 l-44 -138 -149 0 c-83 0 -150 1 -150 3 0 6 102 281 107 290 5 9 219 -1 258 -12z m532 -38 c30 -5 33 -11 72 -114 23 -60 41 -114 41 -120 0 -6 -56 -8 -152 -7 l-152 3 -38 125 c-21 69 -38 127 -38 129 0 4 225 -8 267 -16z"/>
	</g>
  </symbol>
		
  <symbol id="icon-imdb" viewBox="0 0 24 24">
	<rect width="100%" height="100%" fill="#000000"/>
	<path d="M14.31 9.588v.005c-.077-.048-.227-.07-.42-.07v4.815c.27 0 .44-.06.5-.165.062-.104.095-.405.095-.885v-2.866c0-.33-.004-.54-.033-.63-.022-.096-.067-.163-.14-.204zM22.416 0H1.62C.742.06.06.744 0 1.596V22.38c.06.874.712 1.542 1.555 1.617.015.003.03.003.045.003h20.845c.88-.088 1.55-.826 1.555-1.71V1.71C24 .82 23.305.07 22.416 0zM4.792 15.626H2.887V8.26h1.905v7.366zm6.54-.002H9.67v-4.97L9 15.623H7.812l-.698-4.86-.007 4.86H5.44V8.26h2.468c.083.523.16 1.048.23 1.574l.27 1.87.442-3.444h2.483v7.364zm4.977-2.18c0 .655-.044 1.094-.104 1.32-.062.22-.17.4-.326.52-.15.13-.34.218-.57.266-.223.045-.57.075-1.02.075l-.004-.002H11.98V8.26h1.426c.914 0 1.45.047 1.77.128.325.09.575.225.745.42.165.18.273.404.313.645.05.235.076.705.076 1.402v2.588zm4.944.475c0 .45-.045.764-.09.99-.06.224-.195.404-.405.568-.226.166-.48.24-.78.24-.22 0-.5-.06-.68-.136-.19-.094-.358-.237-.515-.427l-.116.47h-1.717V8.26l-.02-.003h1.8v2.4c.15-.175.315-.31.51-.4.196-.083.466-.127.69-.127.226-.003.45.036.66.115.17.07.32.185.436.33.09.125.15.27.18.42.03.138.044.43.044.87v2.054zM19.08 11.205c-.12 0-.194.04-.225.12-.03.08-.06.29-.06.624v1.946c0 .324.03.533.06.623.04.086.13.14.226.134.12 0 .272-.047.3-.14.03-.097.046-.32.046-.674l.03-.002v-1.89c0-.303-.015-.508-.06-.603-.044-.1-.195-.14-.315-.14z"/>
  </symbol>
  
  <symbol id="icon-eye" viewBox="0 0 24 24">
    <path d="M1 12s4-8 11-8 11 8 11 8-4 8-11 8-11-8-11-8z"></path>
    <circle cx="12" cy="12" r="3"></circle>
  </symbol>
</svg>