<svg xmlns="http://www.w3.org/2000/svg" style="display: none;">

  <!-- ICONO PLAY/FILTER (Limpiar filtros) -->
  <symbol id="icon-play-filter" viewBox="0 0 24 24" fill="none" stroke="currentColor" stroke-width="2" stroke-linecap="round" stroke-linejoin="round">
    <polyline points="23 4 23 10 17 10"></polyline>
    <path d="M20.49 15a9 9 0 1 1-2.12-9.36L23 10"></path>
  </symbol>

  <!-- ICONO PAUSE (Rotación) -->
  <symbol id="icon-pause" viewBox="0 0 24 24" fill="none" stroke="currentColor" stroke-width="2" stroke-linecap="round" stroke-linejoin="round">
    <rect x="6" y="4" width="4" height="16"></rect>
    <rect x="14" y="4" width="4" height="16"></rect>
  </symbol>

  <!-- ICONO MOON (Tema Oscuro) - Corregido ID 'icon-icon-moon' a 'icon-moon' -->
  <symbol id="icon-moon" viewBox="0 0 24 24" fill="none" stroke="currentColor" stroke-width="2" stroke-linecap="round" stroke-linejoin="round">
    <path d="M21 12.79A9 9 0 1 1 11.21 3 7 7 0 0 0 21 12.79z"></path>
  </symbol>

  <!-- ICONO SUN (Tema Claro) -->
  <symbol id="icon-sun" viewBox="0 0 24 24" fill="none" stroke="currentColor" stroke-width="2" stroke-linecap="round" stroke-linejoin="round">
    <circle cx="12" cy="12" r="5"></circle>
    <line x1="12" y1="1" x2="12" y2="3"></line>
    <line x1="12" y1="21" x2="12" y2="23"></line>
    <line x1="4.22" y1="4.22" x2="5.64" y2="5.64"></line>
    <line x1="18.36" y1="18.36" x2="19.78" y2="19.78"></line>
    <line x1="1" y1="12" x2="3" y2="12"></line>
    <line x1="21" y1="12" x2="23" y2="12"></line>
    <line x1="4.22" y1="19.78" x2="5.64" y2="18.36"></line>
    <line x1="18.36" y1="5.64" x2="19.78" y2="4.22"></line>
  </symbol>
  
  <!-- ICONO REWIND (Cerrar Sidebar) -->
  <symbol id="icon-rewind" viewBox="0 0 24 24" fill="none" stroke="currentColor" stroke-width="2" stroke-linecap="round" stroke-linejoin="round">
    <polygon points="11 19 2 12 11 5 11 19"></polygon>
    <polygon points="22 19 13 12 22 5 22 19"></polygon>
  </symbol>

  <symbol id="icon-star" viewBox="0 0 24 24">
<path d="M11.525 2.295a.53.53 0 0 1 .95 0l2.31 4.679a2.123 2.123 0 0 0 1.595 1.16l5.166.756a.53.53 0 0 1 .294.904l-3.736 3.638a2.123 2.123 0 0 0-.611 1.878l.882 5.14a.53.53 0 0 1-.771.56l-4.618-2.428a2.122 2.122 0 0 0-1.973 0L6.396 21.01a.53.53 0 0 1-.77-.56l.881-5.139a2.122 2.122 0 0 0-.611-1.879L2.16 9.795a.53.53 0 0 1 .294-.906l5.165-.755a2.122 2.122 0 0 0 1.597-1.16z" />
  </symbol>
	
	<symbol id="icon-bookmark-plus" viewBox="0 0 24 24"><!-- El cuerpo (path) sigue limpio, heredará fill/stroke del CSS -->
<path d="m19 21-7-4-7 4V5a2 2 0 0 1 2-2h10a2 2 0 0 1 2 2v16z"/><!-- Las líneas (el signo +) usan ahora una VARIABLE CSS -->
<line x1="12" x2="12" y1="7" y2="13" style="stroke: var(--icon-plus-color, currentColor)"/>
<line x1="15" x2="9" y1="10" y2="10" style="stroke: var(--icon-plus-color, currentColor)"/>
	</symbol>
		
	<symbol id="icon-imdb" viewBox="0 0 24 24">
		<rect width="100%" height="100%" fill="#000000"/>
<path d="M14.31 9.588v.005c-.077-.048-.227-.07-.42-.07v4.815c.27 0 .44-.06.5-.165.062-.104.095-.405.095-.885v-2.866c0-.33-.004-.54-.033-.63-.022-.096-.067-.163-.14-.204zM22.416 0H1.62C.742.06.06.744 0 1.596V22.38c.06.874.712 1.542 1.555 1.617.015.003.03.003.045.003h20.845c.88-.088 1.55-.826 1.555-1.71V1.71C24 .82 23.305.07 22.416 0zM4.792 15.626H2.887V8.26h1.905v7.366zm6.54-.002H9.67v-4.97L9 15.623H7.812l-.698-4.86-.007 4.86H5.44V8.26h2.468c.083.523.16 1.048.23 1.574l.27 1.87.442-3.444h2.483v7.364zm4.977-2.18c0 .655-.044 1.094-.104 1.32-.062.22-.17.4-.326.52-.15.13-.34.218-.57.266-.223.045-.57.075-1.02.075l-.004-.002H11.98V8.26h1.426c.914 0 1.45.047 1.77.128.325.09.575.225.745.42.165.18.273.404.313.645.05.235.076.705.076 1.402v2.588zm4.944.475c0 .45-.045.764-.09.99-.06.224-.195.404-.405.568-.226.166-.48.24-.78.24-.22 0-.5-.06-.68-.136-.19-.094-.358-.237-.515-.427l-.116.47h-1.717V8.26l-.02-.003h1.8v2.4c.15-.175.315-.31.51-.4.196-.083.466-.127.69-.127.226-.003.45.036.66.115.17.07.32.185.436.33.09.125.15.27.18.42.03.138.044.43.044.87v2.054zM19.08 11.205c-.12 0-.194.04-.225.12-.03.08-.06.29-.06.624v1.946c0 .324.03.533.06.623.04.086.13.14.226.134.12 0 .272-.047.3-.14.03-.097.046-.32.046-.674l.03-.002v-1.89c0-.303-.015-.508-.06-.603-.044-.1-.195-.14-.315-.14z"/>
	</symbol>

	<symbol id="icon-filmaffinity" viewBox="0 0 192 192">
<rect width="192" height="192" fill="#4682B4"/>
<g transform="translate(0,192) scale(.1,-.1)" fill="#FFFFFF" stroke="none">
<path d="m952 1393 c-11 -21 -31 -73 -47 -115 l-28 -78 -208 0 c-248 0 -239 4 -239 -106 l0 -74 165 0 165 0 0 -115 0 -115 -165 0 -165 0 0 -150 0 -150 -145 0 -146 0 3 373 3 374 30 48 c38 61 90 103 157 126 47 16 89 18 346 19 l292 0 -18 -37z m451 3 c56 -32 75 -63 126 -201 28 -75 37 -111 29 -116 -6 -4 -61 -10 -122 -14 -61 -4 -113 -8 -116 -9 -3 0 -11 19 -18 44 -8 25 -16 52 -19 60 -3 9 -15 -13 -27 -50 l-21 -65 -130 -12 c-71 -7 -133 -12 -136 -10 -4 1 19 72 51 157 51 135 64 160 99 191 52 46 91 59 173 55 50 -2 78 -10 111 -30z m-268 -625 c22 -6 22 -6 -22 -143 l-44 -138 -149 0 c-83 0 -150 1 -150 3 0 6 102 281 107 290 5 9 219 -1 258 -12z m532 -38 c30 -5 33 -11 72 -114 23 -60 41 -114 41 -120 0 -6 -56 -8 -152 -7 l-152 3 -38 125 c-21 69 -38 127 -38 129 0 4 225 -8 267 -16z"/>
</g>
	</symbol>

	<symbol id="icon-wikipedia" viewBox="0 0 455 455">
<path d="M0,0v455h455V0H0z M385,118.141c0,1.918-1.558,3.47-3.477,3.47h-9.736 c-3.546,0-6.744,2.15-8.081,5.439l-88.815,217.909L230.16,244.55L182.3,344.958L90.709,126.964 c-1.364-3.239-4.535-5.345-8.049-5.345h-9.181c-1.918,0-3.479-1.56-3.479-3.479v-8.099h79.147l-0.223,8.193 c-0.05,1.886-1.593,3.385-3.477,3.385h-13.249c-4.926,0-8.302,4.971-6.495,9.548l64.305,162.675l32.522-70.485l-41.099-96.434 c-1.373-3.215-4.526-5.312-8.031-5.312h-6.392c-1.918,0-3.479-1.552-3.479-3.47v-8.099h59.436v8.099c0,1.918-1.56,3.47-3.477,3.47 c-5.013,0-8.398,5.133-6.421,9.745l24.288,56.572l24.799-56.52c2.021-4.614-1.355-9.788-6.401-9.788h-9.284 c-1.927,0-3.479-1.56-3.479-3.479v-8.099h62.242v8.099c0,1.918-1.552,3.479-3.479,3.479h-10.358c-3.385,0-6.471,1.962-7.903,5.03 l-38.312,81.925l35.772,84.058l62.589-161.542c1.739-4.57-1.637-9.472-6.53-9.472H321.54c-1.918,0-3.479-1.56-3.479-3.479v-8.099 H385V118.141z"/>
	</symbol>

  <!-- ICONO NETFLIX -->
	<symbol id="icon-netflix" viewBox="60 40 145 180">
<linearGradient id="a" gradientUnits="userSpaceOnUse" x1="108.142" y1="240.643" x2="176.518" y2="189.038" gradientTransform="matrix(.37222 0 0 .2813 36.826 57.446)"><stop offset="0" style="stop-color:#c20000;stop-opacity:0"/><stop offset="1" style="stop-color:#9d0000;stop-opacity:1"/></linearGradient><linearGradient id="b" gradientUnits="userSpaceOnUse" x1="400.786" y1="312.035" x2="338.861" y2="337.837" gradientTransform="matrix(.37222 0 0 .2813 36.826 57.446)"><stop offset="0" style="stop-color:#c20000;stop-opacity:0"/><stop offset="1" style="stop-color:#9d0000;stop-opacity:1"/></linearGradient><path style="stroke:none;fill-rule:nonzero;fill:#c20000;fill-opacity:1" d="M117.375 61.947H83.178v135.027c11.216-2.006 22.93-3.012 34.197-3.389zm0 0"/><path style="stroke:none;fill-rule:nonzero;fill:url(#a)" d="M117.375 61.947H83.178v103.314c11.216-2.006 22.93-3.013 34.197-3.39zm0 0"/><path style="stroke:none;fill-rule:nonzero;fill:#c20000;fill-opacity:1" d="M181.053 196.974V61.947h-34.198v131.907c19.965.959 34.198 3.12 34.198 3.12m0 0"/><path style="stroke:none;fill-rule:nonzero;fill:url(#b)" d="M181.053 196.974v-89.611h-34.198v86.491c19.965.959 34.198 3.12 34.198 3.12m0 0"/><path style="stroke:none;fill-rule:nonzero;fill:#fa0000;fill-opacity:1" d="M181.053 196.974 117.375 61.947H83.178l62.172 131.835c20.752.923 35.703 3.192 35.703 3.192m0 0"/>
	</symbol>

	<symbol id="icon-hbo" viewBox="0 -10 512 240">
<path d="M148 206L92.77 206L92.77 127.24L56.93 127.24L56.93 206L0 206L0 3L56.93 3L56.93 78.51L92.77 78.51L92.77 3L148 3L148 206Z" />
<path d="M407.04 146.26c22.75 0 41.19-18.48 41.19-41.29c0-22.8-18.44-41.28-41.19-41.28c-22.75 0-41.19 18.49-41.19 41.28c0 22.81 18.44 41.29 41.19 41.29zm-52.39-41.29c0-29 23.46-52.52 52.39-52.52c28.94 0 52.4 23.51 52.4 52.52c0 29.01-23.46 52.52-52.4 52.52c-28.93 0-52.39-23.51-52.39-52.52zm-72.95 0c6.48-.82 17.29-8.25 21.1-13c-1.34 5.88-1.44 22.9 0.12 28.78c-4.34-6.7-14.63-14.96-21.22-15.79zM244.02 49.37c8.23 0 14.72 8.15 14.72 17.43c0 9.29-6.49 17.44-14.72 17.44h-28.3V49.37zm-0.1 77.47c8.23 0 14.72 8.15 14.72 17.43c0 9.29-6.49 17.44-14.72 17.44h-28.3v-34.87zm163.08 83.95C464.67 210.77 511.59 162.74 511.58 104.93C511.57 45.9 464.67 0.04 407 0c-57.6 0-87.03 42.5-94.3 59.61c0.07-25.75-25.25-56.15-54.87-56.18h-95.43V209.76l88.97 0.02c35.87 0 61.39-31.16 61.44-57.87c8.18 16.81 36.59 58.9 94.19 58.88z" />
	</symbol>

  <!-- ICONO DISNEY -->
	<symbol id="icon-disney" viewBox="26 20 225 185">
<path d="M75.731 20.082c-1.233.014-24.22 2.221-33.508 4.776-6.552 1.783-11.013 4.645-14.135 10.137-1.557 2.75-2.98 5.719-2.205 8.75.678 2.574 4.347 3.469 7.297 3.949 2.832.44 9.283.807 10.997-1.293.74-.904.653-1.758.041-2.84-.632-1.151-10.654-3.604-10.654-3.604s4.846-1.942 5.938-2.244c7.548-2.094 22.51-2.441 29.364-2.197 26.612.991 51.38 6.939 76.451 17.256 24.546 10.107 52.453 27.342 68.737 48.318 6.154 7.936 13.874 20.956 14.808 31.953.852 10.046-2.358 19.66-8.49 26.708-4.645 5.308-10.783 9.228-17.472 12.381-15.243 7.22-33.783 8.703-50.392 8.263-2.18-.056-19.989-2.458-19.989-2.458l-1.091-51.467s5.175.185 8.818.399c9.318.553 28.577 3.746 38.221 7.579 2.06.807 4.208 2.068 4.402 4.112.138 1.563-9.909 10.02-9.174 10.604 1.852 1.435 7.878 2.243 9.486 2.135 5.383-.3 10.697-3.95 13.499-8.876 2.495-4.36 2.745-7.69 1.101-12.518-1.76-5.268-7.2-10.252-13.022-13.2-7.063-3.591-19.382-6.284-25.704-7.285-4.94-.787-27.786-1.56-27.786-1.56s-.152-6.984-.463-11.624c-.516-7.624-2.618-22.604-9.553-26.912-1.266-.792-6.358 8.762-6.665 10.514-.567 3.215-2.333 18.427-2.281 20.746.046 2.351-.19 8.8-.327 8.999a1.3 1.3 0 0 1-.27.25c-.27.185-28.154 7.015-32.844 9.085-6.378 2.795-15.69 7.707-18.293 14.212-1.877 4.664-1.169 8.584 1.305 12.988 3.185 5.641 7.365 10.046 12.014 14.445 1.663 1.573 9.175 7.88 10.92 9.172 6.303 4.681 26.55 15.595 26.55 15.595s3.26 17.378 7.221 19.059c2.42 1.022 5.19.875 7.804.373 2.158-.408 3.642-1.373 4.555-3.248.342-.7 1.255-8.033 1.255-8.033s6.379 1.461 10.666 2.253c12.476 2.305 26 2.525 37.763 1.1 17.35-2.121 37.566-8.56 50.62-19.862 3.52-3.04 9.43-10.15 11.92-14.636a93 93 0 0 0 4.215-8.446c.276-.648 3.526-16.713 3.088-20.69.07-1.68-.858-6.004-.96-6.786-.07-.076-5.945-15.533-7.002-17.668-4.45-8.862-13.589-20.031-20.937-27.323-3.786-3.777-9.037-8.492-13.049-11.772-1.917-1.6-14.292-10.701-16.405-12.096-6.704-4.4-18.646-11.134-26.209-14.782-10.548-5.095-24.979-10.69-35.99-14.016-18.036-5.495-35.681-8.884-54.186-8.675m35.627 107.227s-.176 7.608-.204 15.313c-.077 14.578.312 29.383.312 29.383s-5.195-1.86-8.319-3.164c-9.15-3.833-34.327-23.065-35.245-24.144-1.598-1.875-3.017-3.669-2.63-5.989.384-2.218 4.778-4.06 6.946-4.818 7.196-2.59 39.14-6.581 39.14-6.581"/>
	</symbol>

  <!-- ICONO WARNER BROS. -->
	<symbol id="icon-wb" viewBox="15 30 198 191">
<path d="M198.462 78.236v-9.67l-12.923-7v-10.11l-6.63-3.157c-18.838-8.983-39.668-14.981-63.693-18.172l-1.57-.213-1.57.213c-24.026 3.191-44.855 9.19-63.691 18.172l-6.63 3.157v10.112l-12.925 7v9.67l-14.041 7.53 1.11 8.027c3.72 26.93 13.54 51.302 29.17 72.452 15.796 21.373 37.12 38.859 63.38 51.982l5.197 2.6 5.197-2.6c26.26-13.123 47.584-30.609 63.381-51.982 15.63-21.15 25.45-45.522 29.169-72.452l1.11-8.026zm1.367 13.963c-1.312 8.981-5.537 38.327-27 67.128-21.832 29.659-50.538 44.049-59.199 48.475-8.66-4.428-37.367-18.816-59.197-48.475-21.464-28.803-25.687-58.15-27-67.128l13.04-6.994v-9.702l12.923-7v-9.696c17.878-8.527 37.575-14.132 60.233-17.142 22.658 3.01 42.355 8.617 60.233 17.142v9.696l12.923 7v9.702z"/><path d="m94.315 64.999.6 78.88-.556.325C86.008 123.1 81.031 96.762 79.461 70.348a103 103 0 0 0-12.909 6.948c1.801 23.964 5.896 44.93 13.256 64.833l-4.165 2.413c-11.036-15.455-18.246-34.252-23.198-56.548a113 113 0 0 0-10.098 10.339c6.47 26.761 16.654 47.04 31.54 63.546l11.475-6.86c5.621 11.714 13.519 23.272 22.195 32.511V62.661a86 86 0 0 0-13.242 2.338m73.865 40.663c4.676-5.177 5.67-8.944 5.67-13.502 0-6.45-5.328-12.19-13.079-17.122-4.681-2.98-11.847-6.587-22.298-9.5a86.6 86.6 0 0 0-18.735-2.877v124.872c26.246-13.512 57.448-50.537 57.606-69.375.048-5.762-2.991-9.526-9.164-12.496m-35.536-28.069c6.462 0 27.369 6.611 27.369 14.96 0 3.008-2.657 7.322-10.926 11.664l-16.443 8.819zm16.29 69.25c-3.692 4.258-9.742 10.752-16.29 15.812v-35.829s23.723-13.351 24.594-13.92c7.102 1.8 6.74 7.022 6.74 7.563-.006 6.58-6.731 16.765-15.043 26.373"/>
	</symbol>

  <!-- ICONO UNIVERSAL -->
	<symbol id="icon-universal" viewBox="3 34 245 183">
<path d="M40.381 98.082C51.68 61.833 78.272 34.216 122.81 34.216c41.218 0 71.794 28.308 82.766 64.557-11.636-33.833-43.109-47.91-81.667-47.91-38.224 0-71.563 13.733-83.528 47.219m164.862 55.237c-10.972 36.249-42.545 64.209-82.435 64.209-42.214 0-70.797-27.614-82.096-63.518 11.965 33.486 44.867 44.856 82.756 44.856 38.226-.002 70.143-11.716 81.775-45.547M141.36 98.391c-1.11.691-3.776.345-4.221.691h-.446c1.112-1.383-.664-2.761 1.112-2.761 1.335-.002 2.445 1.378 3.555 2.07m106.18 43.844v-8.976l-1.557 2.072h-10.439v-23.822l1.332-2.762h-8.885l1.333 2.762v28.306l-1.333 2.42zm-35.763-12.083h-7.109l3.557-11.74zm10.217 12.083-10.441-33.488h-7.33l.889 2.762-9.773 30.726h7.996l-1.334-2.418 1.11-3.451h10.22l1.11 3.451-1.554 2.418zm-31.986-9.668c0-5.523-2.888-8.286-6.888-10.356-2.441-1.381-6.22-2.072-6.22-4.832 0-1.38 1.112-2.072 2.888-2.072 2.222 0 5.997 1.381 9.108 3.453v-11.048l-1.776 2.416c-1.774-1.035-4.887-2.07-7.109-2.07-7.33 0-9.55 4.831-9.55 9.319 0 6.215 2.442 8.976 6.661 11.394 3.111 1.728 5.998 1.728 5.998 4.488 0 2.416-1.775 2.759-2.664 2.759-2.222 0-6.443-1.379-9.995-5.175v12.427l1.776-2.764c1.554 1.037 5.329 2.764 8.44 2.764 6.443.002 9.331-4.486 9.331-10.703m-34.651-12.772c0 2.416-1.555 4.142-3.556 4.142h-4.219v-8.286h4.885c1.555 0 2.89 1.381 2.89 4.144m7.326 22.44-5.774-13.118c2.888-1.729 4.889-5.18 4.889-10.011 0-5.871-2.224-10.359-8.44-10.359h-13.331l1.333 2.762v28.306l-1.333 2.417h8.885l-1.332-2.417v-9.663h2.665l4.219 9.663-1.331 2.417h9.55zm-30.875 0v-8.976l-1.552 2.072h-11.109v-6.56h7.111l1.554 2.072v-10.704l-1.554 2.072h-7.111v-6.56h11.109l1.552 2.418v-9.322h-20.212l1.333 2.762v28.306l-1.333 2.42zm-25.543-33.488H98.49l1.332 2.762-5.329 18.297-5.332-18.297 1.557-2.762h-9.11l9.997 33.488h4.442zm-30.209 33.488-1.333-2.42v-28.306l1.333-2.762h-9.108l1.334 2.762v28.306l-1.334 2.42zm-17.55-33.488h-7.551l1.333 2.762v16.57l-11.106-19.332h-6.665l1.334 2.762v28.306l-1.334 2.42h7.553l-1.333-2.42v-17.258l11.551 19.678h4.887v-30.726zm-31.319 0H18.08l1.333 2.762v18.299c0 4.142-1.776 5.867-4.442 5.867s-4.443-1.725-4.443-5.867v-18.299l1.334-2.762h-9.11l1.333 2.762v18.643c0 9.321 3.332 12.772 10.886 12.772 7.33 0 10.662-3.451 10.662-12.772v-18.643zm138.609 46.945.889-4.829h-32.431s5.333 6.562 5.773 8.63c1.114 4.488-.44.691-.44 7.593 0 6.216-4.223 21.402-4.223 21.402s-.445.691-1.336 5.871c-.219 1.728 1.336 4.488 2.448 3.796.885-.687-2.224-1.033 1.329-3.451 1.335-.691.223-2.415.223-2.415s2.222-.346 3.332-5.525c2.221.691 1.557-1.383 5.999-3.105 1.331-.346 2.888-2.418 7.328-9.668 3.557-5.525 2.222-6.905 4.668-8.975 2.666-2.075 2.887.345 3.774-1.383 2.001-4.142 2.667-7.941 2.667-7.941m-53.09-60.754c-1.331-2.762-.442-6.56.891-10.357 1.11-2.416 3.774-3.796 5.997-2.416 2.664-3.107 3.33.346 5.552-1.38 2.888-1.727 1.333 5.523 4.221 7.249 1.112-4.833-2.665-8.632-.223-11.048 1.779-1.726 3.111-2.761 3.778-4.833 1.108-3.108 1.332-5.525 2.22-5.871 1.776-1.035 3.333-2.762 4.887-5.177-1.11-1.037-2.888-1.727-2.443-3.799.667-2.072 4.324 1.696 5.655-2.101-2.443-1.38-12.985-5.84-12.762.375 0 1.38-1.335 1.726-2.443-1.727-.668-1.726-22.087-3.116-22.087-.354-1.778 1.726-1.683 5.532-4.348 10.365-2.222 3.799-2.887 9.665-2.887 9.665s3.111 19.678 3.555 17.606c.666-4.142-1.333-7.939-1.11-12.083.221.692 3.33 17.26 4.887 17.26 0 0 2.887 4.49 3.553 4.49h11.551s.887-5.523 1.554-6.214c.668-1.035-2.887-.344-3.332.691-.219 1.035-.663 2.416-1.554 3.108-.889.345-2.886.691-3.33.691-.445 0-1.782-4.14-1.782-4.14m17.103-2.072c-1.331-1.727-.665-1.381.224-1.381.888 0 3.553 4.144 5.552 3.798 1.999 0-.445 1.381-.445 1.381s-1.331-1.037-1.997-.345c-.444.345-1.558-1.036-3.334-3.453"/>
	</symbol>

	<symbol id="icon-sony" viewBox="16.7 19.5 255 280">
<path d="M252.244 30.142c-.194 0-11.217 4.305-11.217 6.529 0 .957-4.053 52.12-4.247 55.217-.228 3.095-.455 15.197-.552 26.876-.129 21.867.033 27.243 1.394 45.451 1.265 16.801 3.696 40.695 4.28 41.989.227.507 13.617-4.756 13.617-4.756s1.297-15.225 1.556-17.532c.26-2.336 1.265-20.854 1.427-29.129.194-8.274 1.005-43.678.875-46.295-.908-21.276-1.881-35.855-3.275-48.266-.292-2.392-3.079-30.141-3.858-30.084zm-27.266 11.059c-.162-.056-11.445 4.419-11.639 5.039-.097.337-2.659 34.052-2.95 37.063-2.302 25.92-3.08 55.808-1.945 75.424.94 16.464 2.464 35.122 3.761 46.155.194 1.632 1.458 12.664 1.815 12.973.162.113 13.325-4.896 13.519-5.796.065-.451 2.011-31.775 2.302-36.868.584-11.144 1.103-28.707 1.362-44.466.13-8.528.065-14.156-.324-21.529-.779-14.185-5.706-67.967-5.901-67.995zM197.583 53.05c-.519-.534-10.699 3.236-11.348 3.518-.292.112-6.16 61.38-6.16 89.636 0 15.422 3.567 59.325 3.567 59.944 0 1.014 2.334 22.824 2.528 22.994.227.196 11.347-4.278 11.834-4.644.875-.591 2.626-18.603 2.788-20.601.519-5.319 1.232-17.477 1.848-30.676.81-16.745.81-51.953.032-62.76-1.069-15.056-1.524-21.134-1.88-24.906-.194-2.082-2.82-32.112-3.209-32.505zm-30.801 11.595c-.908.253-7.327 2.646-7.327 2.646s-5.414 52.373-6.322 66.248c-.195 3.096-.454 12.215-.551 20.263-.162 15.085.259 25.639 1.394 37.149.292 2.617 5.544 49.109 5.901 49.109.389 0 10.958-4.39 10.958-4.39s3.728-53.893 3.955-81.868c.13-15.394.065-20.686-.356-27.017-1.167-17.421-5.998-62.619-7.652-62.14zm-27.396 10.891c-.162-.056-4.312 1.239-4.701 1.52-.68.478-2.853 18.011-3.08 19.475-2.172 12.974-3.112 18.996-4.733 30.395-.195 1.463-1.005 9.484-1.232 11.256-1.297 11.736-1.459 15.395-1.459 30.818 0 15.759.065 17.476 1.621 32.786.94 9.597 7.003 48.688 7.586 48.688.487 0 5.285-2.027 5.934-2.477.389-.309 1.394-10.61 3.955-30.169 3.372-25.385 4.02-33.941 4.28-55.527.129-11.144.064-15.479-.357-21.247-.81-11.229-4.474-39.541-4.539-40.16-.195-1.943-3.08-25.33-3.275-25.358zm-27.558 11.257c-.162-.028-5.025 1.83-5.252 1.943-.292.168-.584 39.146-1.362 42.411-.194.704-3.469 16.435-3.728 17.786-2.496 12.187-3.307 17.308-3.793 24.569-.259 3.884 1.686 28.003 2.821 34.053.842 4.616 2.691 13.819 3.858 21.023.389 2.365.616 32.899.778 33.125.422.59 5.771-1.661 5.998-2.562.097-.337.518-32.786.972-35.685.292-1.942 6.03-45.113 6.03-52.768 0-8.302-1.134-20.01-3.079-31.38-.649-3.799-1.946-12.692-2.14-13.93-.195-1.239-.908-38.528-1.103-38.585zM84.757 98.022c-.259-.028-4.571 1.576-4.766 1.689-.324.169-.487 48.096-.876 49.532-.259.957-4.668 20.009-4.895 21.022-1.686 7.121-2.431 13.368-2.431 19.982 0 5.995.551 9.878 2.464 17.871.551 2.308 3.468 14.438 3.89 15.929.389 1.295.551 48.294.746 48.462.162.142 5.9-2.082 5.933-2.11.032-.056.486-48.997.973-50.742.324-1.098 1.75-8.471 2.009-9.85 4.475-24.09 4.507-33.603.033-51.924-.227-1.013-1.686-7.121-1.881-7.739-.259-.788-.778-52.065-1.199-52.122zm-26.78 11.342c-.227-.562-5.641 1.52-5.641 1.52l-.032 75.846s-9.228 11.336-4.56 14.769c.908.647 3.879 4.705 4.138 5.127.389.648.551 76.24.811 76.382.323.168 4.214-1.098 5.057-1.662.324-.197.421-76.042.421-76.042s6.388-9.85 6.063-13.002c-.227-1.97-5.219-10.441-5.219-10.441-.357-5.488-.941-72.243-1.038-72.497zm-26.228 10.385s-4.766 1.323-4.928 1.661c-.195.422-.325 168.211-.13 171.334.032.564 4.992-1.266 5.058-1.604.097-.309.129-39.005.097-85.977l-.097-85.414z"/>
	</symbol>

	<symbol id="icon-paramount" viewBox="0 0 355 300">
<path d="M140.9 229.37c-1.68-.7-4.43-3.78.15-12.38l10.63-22.22c.32-.67-.45-1.51-.94-.94l-9.3 9.35c-4.4 4.59-11.86 17.5-13.31 19.89l-11.29 18.67c.84-.03 1.54.63 1.57 1.47 0 .28-10.51 18.13-10.51 18.13-2.52 4.3 2.01 7.31 2.62 6.32 16.23-26.14 25.66-24.05 25.66-24.05l5.42-12.54c.29-.63 0-1.37-.62-1.65-.02-.01-.05-.02-.08-.03zM177.79 11C85.02 11 9.81 86.17 9.81 178.89a167.05 167.05 0 0 0 32.84 99.69c7.05-3.04 10.96-7.59 13.76-11.07l31.28-39.98c.66-.84 1.52-1.51 2.5-1.93l4.71-2.03 51.43-65.2 7.46-5.84 15.32-21.32c.4-.55.88-1.04 1.43-1.44l6.69-4.86a4.78 4.78 0 0 1 5.55-.05l8.11 5.69c4.3 3.02 7.79 7.06 10.16 11.75l32.5 57.05a5.1 5.1 0 0 0 2.54 2.44c6.37 3.17 10.27 3.73 18.61 12.79 3.89 4.22 20.95 23.29 44.85 52.91a33.9 33.9 0 0 0 13.49 10.93 166.98 166.98 0 0 0 32.73-99.56C345.76 86.17 270.56 11 177.79 11M55.11 188.15l-10.89-3.54-6.73 9.26v-11.44l-10.89-3.54 10.89-3.54v-11.44l6.73 9.26 10.89-3.54-6.73 9.26 6.73 9.25zm-2.58 37.44-3.54 10.88-3.54-10.88H34l9.26-6.73-3.54-10.88 9.26 6.73 9.26-6.73-3.54 10.88 9.26 6.73H52.51zm2.19-86.66 3.54 10.88-9.26-6.73-9.26 6.73 3.54-10.88-9.26-6.73h11.45l3.54-10.88 3.54 10.88H64l-9.26 6.73zm18.39-36.06v11.44l-6.72-9.25-10.89 3.54 6.73-9.26-6.73-9.26 10.89 3.54 6.73-9.26V95.8l10.89 3.53-10.89 3.54zm28.62-28.6-3.54 10.87-3.54-10.88H83.2l9.26-6.73-3.54-10.88 9.26 6.72 9.26-6.73-3.54 10.89 9.26 6.73h-11.45zm36.07-18.38-6.73 9.26V53.71l-10.89-3.54 10.89-3.54V35.19l6.73 9.26 10.89-3.54-6.73 9.26 6.73 9.26zm45.71-10.49 3.54 10.88-9.26-6.73-9.26 6.73 3.53-10.88-9.26-6.73h11.45l3.54-10.88 3.54 10.88h11.45l-9.26 6.72zm40.99 8.31v11.44l-6.73-9.26-10.89 3.54 6.73-9.26-6.73-9.26 10.89 3.54 6.73-9.26v11.44l10.89 3.54zm75.96 115.94 10.89 3.54 6.73-9.26v11.44l10.89 3.54-10.89 3.54v11.44l-6.73-9.26-10.89 3.54 6.74-9.26zm6.12-48.32 3.54 10.88h11.45l-9.26 6.73 3.54 10.88-9.27-6.73-9.26 6.73 3.54-10.88-9.27-6.73h11.44l3.54-10.88zm-49.19-36.18-3.54-10.88H242.4l9.26-6.73-3.53-10.88 9.26 6.73 9.26-6.72-3.53 10.88 9.26 6.73h-11.45l-3.54 10.88zm25.09 29.17v-11.44l-10.89-3.54 10.89-3.53V84.36l6.73 9.26 10.89-3.54-6.73 9.26 6.73 9.26-10.89-3.54zm27.64 111.27-3.54 10.88-3.54-10.88h-11.45l9.27-6.73-3.54-10.88 9.26 6.73 9.27-6.73-3.54 10.88 9.26 6.73zm-71.49 50.33c.81-1.17 2.12-4.39-.34-10.35l-7.43-19.98c-1.01-2.55 1.2-4.1 2.68-2.42 0 0 14.05 16.19 17.68 22.95l6.93 11.5c5.96.38 22.41.83 38.24.83a45 45 0 0 1-4.41-5.09c-27.02-33.48-44.15-52.1-44.32-52.29-5.48-5.95-8.01-7.09-12.18-8.99-.6-.27-1.26-.57-1.94-.89v5.08c.04.34-.2.66-.55.7a.624.624 0 0 1-.65-.38l-39.72-69.74-.11-.22c-1.66-3.29-4.1-6.11-7.11-8.23l-3.87-2.72-18.95 43.7c2.95.001 4.933 3.024 3.76 5.73l-17.51 40.48h16.07c6.21 0 12.36 1.21 18.11 3.56l4.24 1.74s-12.78 26.28-12.78 40.12c.02 2.52.37 5.02 1.04 7.45h29.46l-1.36-8.3c11.56 2.58 23.25 4.51 35.02 5.77z"/>
	</symbol>

	<symbol id="icon-lionsgate" viewBox="0 0 607 328">
<path d="M297.001 15.801c17.954-.167 35.019 1.897 51.108 9.173 15.323 6.93 26.543 18.037 33.502 33.397 7.793 17.201 9.5 35.438 9.635 54.35H321.13c0-5.845.423-11.5-.117-17.062-.557-5.738-1.514-11.558-3.266-17.031-2.47-7.717-8.412-11.912-16.48-12.36-7.788-.432-13.865 3.073-17.975 9.644-7.442 11.896-8.956 25.387-9.135 38.884-.394 29.658-.23 59.325-.104 88.987.048 11.282.135 22.606 1.16 33.824.5 5.472 2.62 11.017 5.017 16.048 4.579 9.611 12.857 13.119 23.17 11.675 8.923-1.25 14.391-7.024 16.617-15.272 1.929-7.15 3.02-14.609 3.648-22.002.601-7.085.13-14.262.13-22.073H298.16v-53.279h95.164v156.674h-50.24l-2.198-22.416c-.948.463-1.735.58-1.984 1.008-10.242 17.588-26.51 24.901-45.861 26.89-18.816 1.933-37.304.872-54.543-7.776-15.03-7.541-24.413-20.167-30.513-35.556-6.891-17.38-9.678-35.632-10.537-54.076-1.037-22.276-1.67-44.622-1.142-66.906.673-28.46 3.09-56.807 14.557-83.487 12.762-29.69 35.267-46.286 67.256-50.05 6.09-.716 12.253-.82 18.882-1.208zM560 193.658c-18.825 0-37.152.11-55.475-.088-3.94-.042-5.094 1.016-5.077 5.037.157 35.15.09 70.301.09 105.452v5.364H424.28V21.135l169.667 1.79v65.077l-93.975-2.01v45.043h5.355c25.818-.006 51.636.044 77.454-.08 3.666-.018 5.263.62 5.206 4.882-.253 18.981-.11 37.967-.11 57.82H560z M15.182 265V21.498h75.335v6.227c0 71.294.052 142.588-.11 213.882-.012 4.936 1.517 6.02 6.18 5.982 26.316-.213 52.636-.103 78.955-.103h5.65v62.099H15.182V265z"/>
	</symbol>

  <!-- ICONO AMAZON -->
	<symbol id="icon-amazon" viewBox="22 71 215 169">
<path d="M180.134 137.346c0 7.517.265 14.989-.087 22.506-.35 8.553 2.193 15.889 7.457 22.37a29 29 0 0 1 1.712 2.342c1.886 2.927 1.536 4.952-1.053 7.202-5.528 4.772-11.013 9.588-16.54 14.36-3.29 2.836-5.351 2.79-8.686 0-4.474-3.736-12.239-14.36-13.161-13.458-5.53 5.535-11.363 10.667-18.778 13.233-11.451 4.005-23.077 4.636-34.572.449-11.055-4.05-17.682-12.423-20.138-24.082-2.719-13.008-1.316-25.385 6.494-36.415 5.922-8.328 14.128-13.233 23.56-16.248 9.739-3.062 19.786-4.233 29.877-5.268 2.852-.314 9.827-.99 9.782-1.936-.086-4.772.395-9.633-.701-14.313-1.405-5.988-5.221-9.499-11.055-10.803-4.169-.946-8.293-.676-12.33.72-6.141 2.16-9.958 6.527-11.494 13.008-.833 3.556-2.457 4.817-5.835 4.457a28170 28170 0 0 1-21.542-2.297c-2.939-.314-4.475-2.61-3.86-5.536 3.73-18.681 15.662-29.168 32.861-33.984 13.206-3.691 26.586-3.916 39.836-.09 10.66 3.061 19.611 8.462 24.612 19.176 2.853 6.076 3.511 12.649 3.598 19.22.087 8.417 0 16.925.043 25.387-.043 0 0 0 0 0m-34.133 14.045c0-2.253-.35-8.643-1.71-8.51-3.336.317-6.712.36-10.046.811-5.836.767-11.538 2.251-16.277 6.033-6.889 5.537-8.335 13.097-7.195 21.604 1.36 9.995 10.046 15.531 19.347 12.2 6.319-2.25 10.179-7.023 12.856-13.009 2.806-6.077 3.025-12.603 3.025-19.129m-15.871 88.252c-33.507-.224-63.888-9.173-91.071-27.698a146 146 0 0 1-15.81-12.423c-.438-.405-2.063-2.781-1.493-3.587.571-.9 1.537-.988 2.372-.586 1.931.943 3.777 1.975 5.664 2.962 17.304 9.33 35.528 16.056 54.633 20.318 17.302 3.856 34.78 5.652 52.523 5.156 25.339-.717 49.757-5.919 73.251-15.562 1.143-.493 6.852-1.346 7.597.494.703 1.704-3.337 5.515-4.346 6.188-15.152 10.047-31.752 16.507-49.32 20.497-11.592 2.692-23.361 3.993-34.298 4.081m84.537-39.961c-5.049-.045-10.054.627-15.06 1.167-.967.089-2.065.357-2.504-.718-.527-1.211.482-1.929 1.317-2.511 6.236-4.219 13.22-5.877 20.553-6.281 5.05-.314 10.056-.088 14.975 1.435 2.238.673 3.337 2.02 3.294 4.35-.265 12.47-4.348 23.323-13.174 32.161-.308.313-.659.581-1.012.851-.791.582-1.756 1.122-2.59.404-.79-.674-.351-1.66 0-2.467 2.59-6.594 5.226-13.141 6.499-20.183.176-.897.221-1.795.265-2.647.041-2.915-.967-4.17-3.777-4.889-2.943-.806-5.886-.672-8.786-.672"/>
	</symbol>

  <!-- ICONO 20TH CENTURY FOX -->
	<symbol id="icon-twenty" viewBox="15 28 217 189">
<path d="M14.402 197.004s184.015 20.278 184.285 20.198c.776-.23 31.89-23.78 31.89-25.561l.866-48.027-32.797-24-158.003 36.737v-3.933l158.36-38.322 30.62 23.18-9.692-33.742-21.15-18.666-157.5 42.998v-3.84l157.875-44.203 18.867 17.067-17.556-68.636L49.813 29.95zM151.961 36.079q.967-.012 1.9.027c9.421.374 13.64 5.982 13.64 21.566 0 3.724-.177 8.246-1.103 12.527l4.089-1.24v-4.35l4.874-1.514v4.384l5.246-1.591v-4.421l4.874-1.513v6.59s3.411-3.437 5.872-3.744c3.526-.442 5.39.47 5.39 4.958v7.639l-4.432 1.247v-7.497c0-2.07-2.064-2.533-3.32-2.142-2.58.802-3.51 3.107-3.51 5.661v5.898l-4.874 1.37V69.2l-5.246 1.564v10.648l-4.874 1.37V72.216l-5.062 1.509c-1.03 3.005-2.556 5.72-4.816 7.725-6.135 5.447-17.475 9.963-30.386 13.573-31.949 8.927-34.344-1.987-34.344-18.696 0-19.217 7.616-26.216 29.899-34.805 4.66-1.797 16.514-5.333 26.183-5.443m-11.31 11.447c-2.965-.017-6.929.842-12.184 2.703-10.015 3.548-16.523 6.95-16.523 21.207 0 13.373 2.284 18.812 19.906 12.608 16.735-5.894 17.013-14.438 17.013-25.057 0-7.148-1.69-11.422-8.212-11.46M84.417 60.868c5.624-.062 8.631 2.624 9.102 9.228 0 11.385-5.603 13.91-11.711 18.815-7.186 5.772-17.145 10.264-20.023 14.763l32.825-9.849v10.28L45.927 117.79v-7.522c0-9.106 8.603-14.169 16.933-19.698 7.946-5.274 15.997-10.055 15.446-15.232-.345-3.236-1.818-4.972-9.369-2.29-9.62 3.417-9.599 8.982-9.599 13.757L46.396 91.67c-2.238-14.395 6.198-21.057 20.11-26.228 7.579-2.816 13.536-4.524 17.911-4.572m112.29 63.946-24.846 28.636 23.744 17.464-19.422 3.699-13.422-10.027-12.347 14.933-20.57 3.918 23.407-26.421-23.476-16.905 18.273-4.177 14.45 10.629 14.423-17.227zm-75.374 17.77c2.939.025 5.637.374 7.717 1.223 6.103 2.491 7.478 7.181 7.478 17.458 0 19.238-11.658 24.064-28.868 27.327-20.585 3.903-29.377 3.26-29.377-16.141 0-15.537 3.235-22.418 26.254-27.703 4.704-1.079 11.186-2.212 16.796-2.164m-8.285 8.947c-2.228-.006-4.77.376-7.285.934-11.844 2.634-14.023 6.81-14.023 16.38 0 11.952 4.43 13.369 15.227 11.24 10.039-1.981 14.415-6.148 14.415-18.113 0-3.968-.78-7.401-2.947-9.083-1.25-.97-3.16-1.356-5.387-1.358m-35.808.589v7.87l-20.07 4.443v8.05l17.71-3.785v7.83l-17.71 3.658v17.089l-12.079 2.301v-40.109z"/>
	</symbol>

  <!-- ICONO A24 -->
	<symbol id="icon-a24" viewBox="0 64 250 123">
<path d="M214.363 153.247h-34.971l34.971-46.612zm28.595 0V63.73l-69.613 92.751h-53.443c-2.301 0-4.141-2.208-4.141-4.969 0-1.893.854-3.47 2.103-4.337.066 0 .066-.079.132-.079 5.39-3.313 10.583-5.048 13.541-6.074 0 0 4.93-1.498 7.231-2.128.789-.238 1.643-.474 2.498-.631 14.133-3.865 33.262-10.49 33.262-37.543 0-5.994-1.249-12.067-4.141-17.509-4.602-8.675-13.279-15.696-27.478-17.746a64 64 0 0 0-9.005-.631c-22.022 0-36.878 13.882-37.404 34.703v1.104c0 11.515 7.757 20.822 17.354 20.822 9.598 0 17.355-9.385 17.355-20.822 0-11.514-7.757-20.821-17.355-20.821-.525 0-1.051 0-1.577.079h-.066c-3.55.393-6.836 2.129-9.4 4.653 1.972-3.707 4.667-6.862 7.954-9.465.066 0 .066-.079.131-.079 5.917-4.575 13.805-7.098 23.073-7.098.986 0 3.484.079 3.484.079 2.038.316 3.616 2.366 3.616 4.89v57.732c0 2.682-1.578 4.97-3.616 5.601-.131 0-.197.078-.328.078-1.972.474-6.179 1.893-6.179 1.893-4.273 1.42-13.147 4.417-20.97 11.594a44.6 44.6 0 0 0-7.165 8.361c-5.127 7.808-7.691 17.351-7.691 28.471h55.809l22.547-30.049h40.953v30.049h28.595V156.56h7.165v-3.234h-7.231m-227.903 3.708 17.617-45.194 17.551 45.194zm23.467-67.907c-3.55 8.912-10.912 9.858-10.912 9.858l3.55 9.07v.079L.593 186.53h2.958l10.255-26.263h37.666l10.189 26.263h31.553L47.002 67.437z"/>
	</symbol>

  <!-- ICONO MOVISTAR -->
	<symbol id="icon-movistar" viewBox="0 60 250 140">
<path d="M124.322 61.528c5.279-1.869 11.278-1.613 16.06 1.891 4.753 3.099 7.948 8.635 10.383 14.252 7.305 18.858 9.136 40.038 8.649 60.602-.497 7.857-.974 15.783-2.532 23.454-.974 4.816-3.643 9.76-7.792 11.304-3 .777-6.711.058-8.542-3.168-2.299-3.691-2.123-8.554-1.948-12.917.75-10.549 2.114-21.133 1.471-31.752-.4-4.108-1.344-8.808-4.588-11.048-2.863-2.263-6.759-1.253-9.223 1.346-4.013 3.482-6.487 8.727-8.766 13.857-3.896 9.644-6.428 19.961-9.292 30.08-2.308 9.076-4.373 18.847-10.197 25.764-6.74 8.588-17.366 10.63-26.775 9.598-10.197-1.416-18.505-10.387-23.005-20.994-4.344-9.052-8.766-18.058-13.042-27.145-1.889-3.795-3.827-7.81-6.973-10.317-2.864-1.567-6.251-.05-7.539 3.377a25.7 25.7 0 0 0-.692 11.327c1.422 12.034 5.737 23.21 7.792 35.048.702 3.969.653 8.878-2.055 11.814-2.123 2.681-5.678 2.901-8.454 1.729-4.042-1.729-5.844-6.777-7.48-11.118-5.425-16.305-8.99-33.643-9.321-51.225.104-11.43 1.654-22.775 4.597-33.656 2.562-8.46 6.302-16.932 12.662-22.177 7.792-6.615 19.479-6.801 26.745.987 9.389 9.69 14.931 23.21 21.876 35.279 3.545 5.989 9.34 11.281 15.827 10.248 5.444-.546 9.564-5.803 11.551-11.547 4.432-12.163 8.036-24.754 13.061-36.592 3.623-8.448 9.886-15.47 17.542-18.301m76.028 20.297h22.46c0 11.025-.097 22.05 0 33.075 9.204 0 18.408.081 27.612 0 .224 8.983 0 17.977.127 26.959-9.214.163-18.447.093-27.661 0-.331 11.037 0 22.05-.136 33.122H200.35c-.068-11.049.156-22.05-.097-33.134-9.204.128-18.408.094-27.612 0-.069-8.994-.127-17.999 0-26.993 9.204.116 18.408 0 27.612 0 .185-10.99.117-21.992.097-33.029"/>
	</symbol>

  <!-- ICONO MIRAMAX -->
	<symbol id="icon-miramax" viewBox="25 43 200 167">
<path d="m101.567 43.275 23.95 30.792 23.954-30.792h76.547v166.988h-76.547v-56.88l-23.954 29.223-23.95-29.223v56.88H25.018V43.275z"/><path d="M39.189 131.88h171.41v.63H39.188zm31.234-38.847h9.888v24.852h-9.888zm-31.234 24.852h9.414v-9.912l5.341 5.667 5.334-5.667v9.912h9.417V93.028H60.22l-6.275 7.239-6.436-7.24h-8.32zm79.582-9.44-1.414-3.459-1.412 3.458zm-26.687-9.281v4.879h1.414c1.439.086 3.029-1.139 2.983-2.678-.187-1.431-1.445-2.152-2.983-2.201zm81.154 9.28-1.412-3.458-1.411 3.458zm-4.868 5.667-1.72 3.773h-16.173v-9.911l-5.334 5.667-5.182-5.667v9.912h-17.579l-1.728-3.774h-6.753l-1.566 3.774H97.263l-5.18-7.077v7.077H82.038V93.028H94.44c8.447-.038 11.94 4.22 12.084 7.865.024 3.4-1.45 5.697-4.863 7.711l2.67 3.458 8.476-19.034h8.943l8.636 19.034V93.028h8.322l6.436 7.24 6.437-7.24h8.47v16.048l7.227-16.048h8.94l8.64 19.034 5.176-6.45-9.26-12.584h11.775l3.765 4.881 4.078-4.881h11.457l-10.202 12.584 8.952 12.273H198.98l-3.45-4.88-3.921 4.88H176.85l-1.73-3.774zm-129.18 8.027H210.6v.786H39.188z" fill="#fff"/>
	</symbol>

</svg>